ply
format ascii 1.0
comment Created by Blender 2.72 (sub 0) - www.blender.org, source file: ''
element vertex 600
property float x
property float y
property float z
property float nx
property float ny
property float nz
property uchar red
property uchar green
property uchar blue
element face 200
property list uchar uint vertex_indices
end_header
0.000000 -1.000000 0.000000 0.187597 -0.794651 0.577354 87 80 59
0.723600 -0.447215 0.525720 0.187597 -0.794651 0.577354 242 223 164
-0.276385 -0.447215 0.850640 0.187597 -0.794651 0.577354 255 235 173
0.723600 -0.447215 0.525720 0.607065 -0.794652 0.000000 255 235 173
0.000000 -1.000000 0.000000 0.607065 -0.794652 0.000000 255 235 173
0.723600 -0.447215 -0.525720 0.607065 -0.794652 0.000000 255 235 175
0.000000 -1.000000 0.000000 -0.491122 -0.794652 0.356829 87 80 59
-0.276385 -0.447215 0.850640 -0.491122 -0.794652 0.356829 255 235 173
-0.894425 -0.447215 0.000000 -0.491122 -0.794652 0.356829 255 235 173
0.000000 -1.000000 0.000000 -0.491122 -0.794652 -0.356829 87 80 59
-0.894425 -0.447215 0.000000 -0.491122 -0.794652 -0.356829 255 235 173
-0.276385 -0.447215 -0.850640 -0.491122 -0.794652 -0.356829 227 210 155
0.000000 -1.000000 0.000000 0.187597 -0.794651 -0.577354 255 235 173
-0.276385 -0.447215 -0.850640 0.187597 -0.794651 -0.577354 255 235 173
0.723600 -0.447215 -0.525720 0.187597 -0.794651 -0.577354 255 235 173
0.723600 -0.447215 0.525720 0.982246 -0.187597 0.000000 255 255 255
0.723600 -0.447215 -0.525720 0.982246 -0.187597 0.000000 255 255 255
0.894425 0.447215 0.000000 0.982246 -0.187597 0.000000 255 255 255
-0.276385 -0.447215 0.850640 0.303536 -0.187589 0.934171 255 235 173
0.723600 -0.447215 0.525720 0.303536 -0.187589 0.934171 242 223 164
0.276385 0.447215 0.850640 0.303536 -0.187589 0.934171 255 246 218
-0.894425 -0.447215 0.000000 -0.794649 -0.187587 0.577359 255 235 173
-0.276385 -0.447215 0.850640 -0.794649 -0.187587 0.577359 255 235 173
-0.723600 0.447215 0.525720 -0.794649 -0.187587 0.577359 255 245 211
-0.276385 -0.447215 -0.850640 -0.794649 -0.187587 -0.577359 255 235 173
-0.894425 -0.447215 0.000000 -0.794649 -0.187587 -0.577359 255 236 176
-0.723600 0.447215 -0.525720 -0.794649 -0.187587 -0.577359 255 235 173
0.723600 -0.447215 -0.525720 0.303536 -0.187589 -0.934171 255 235 173
-0.276385 -0.447215 -0.850640 0.303536 -0.187589 -0.934171 255 235 173
0.276385 0.447215 -0.850640 0.303536 -0.187589 -0.934171 255 235 173
0.723600 -0.447215 0.525720 0.794649 0.187587 0.577359 255 255 255
0.894425 0.447215 0.000000 0.794649 0.187587 0.577359 255 255 255
0.276385 0.447215 0.850640 0.794649 0.187587 0.577359 255 255 255
-0.276385 -0.447215 0.850640 -0.303536 0.187589 0.934171 255 235 173
0.276385 0.447215 0.850640 -0.303536 0.187589 0.934171 255 246 218
-0.723600 0.447215 0.525720 -0.303536 0.187589 0.934171 255 245 211
-0.894425 -0.447215 0.000000 -0.982246 0.187597 0.000000 255 236 175
-0.723600 0.447215 0.525720 -0.982246 0.187597 0.000000 255 235 173
-0.723600 0.447215 -0.525720 -0.982246 0.187597 0.000000 255 235 173
-0.276385 -0.447215 -0.850640 -0.303536 0.187589 -0.934171 255 235 173
-0.723600 0.447215 -0.525720 -0.303536 0.187589 -0.934171 255 235 173
0.276385 0.447215 -0.850640 -0.303536 0.187589 -0.934171 255 235 173
0.723600 -0.447215 -0.525720 0.794649 0.187587 -0.577359 255 255 255
0.276385 0.447215 -0.850640 0.794649 0.187587 -0.577359 255 255 255
0.894425 0.447215 0.000000 0.794649 0.187587 -0.577359 255 255 255
0.276385 0.447215 0.850640 0.491122 0.794652 0.356829 255 255 255
0.894425 0.447215 0.000000 0.491122 0.794652 0.356829 255 255 255
0.000000 1.000000 0.000000 0.491122 0.794652 0.356829 255 255 255
-0.723600 0.447215 0.525720 -0.187597 0.794651 0.577354 255 245 211
0.276385 0.447215 0.850640 -0.187597 0.794651 0.577354 255 246 217
0.000000 1.000000 0.000000 -0.187597 0.794651 0.577354 255 249 230
-0.723600 0.447215 -0.525720 -0.607065 0.794652 0.000000 255 235 173
-0.723600 0.447215 0.525720 -0.607065 0.794652 0.000000 255 235 173
0.000000 1.000000 0.000000 -0.607065 0.794652 0.000000 255 235 173
0.276385 0.447215 -0.850640 -0.187597 0.794651 -0.577354 255 235 173
-0.723600 0.447215 -0.525720 -0.187597 0.794651 -0.577354 255 235 173
0.000000 1.000000 0.000000 -0.187597 0.794651 -0.577354 255 235 173
0.894425 0.447215 0.000000 0.491122 0.794652 -0.356829 255 255 255
0.276385 0.447215 -0.850640 0.491122 0.794652 -0.356829 255 255 255
0.000000 1.000000 0.000000 0.491122 0.794652 -0.356829 255 255 255
1.265779 -1.148982 -1.252907 0.488581 -0.872481 -0.008159 225 207 153
2.341372 -0.554137 -0.453374 0.488581 -0.872481 -0.008159 255 237 181
1.203664 -1.197458 0.211259 0.488581 -0.872481 -0.008159 176 163 119
2.341372 -0.554137 -0.453374 0.679123 -0.468709 -0.564893 255 235 173
1.265779 -1.148982 -1.252907 0.679123 -0.468709 -0.564893 225 207 153
1.837124 0.144868 -1.639575 0.679123 -0.468709 -0.564893 255 235 173
1.265779 -1.148982 -1.252907 -0.216828 -0.975328 -0.041490 219 201 149
1.203664 -1.197458 0.211259 -0.216828 -0.975328 -0.041490 148 137 101
-0.003754 -0.896046 -0.564184 -0.216828 -0.975328 -0.041490 132 121 89
1.265779 -1.148982 -1.252907 -0.462254 -0.635110 -0.618834 225 207 153
-0.003754 -0.896046 -0.564184 -0.462254 -0.635110 -0.618834 255 235 173
0.387765 -0.066434 -1.708071 -0.462254 -0.635110 -0.618834 251 231 170
1.265779 -1.148982 -1.252907 0.091478 -0.322005 -0.942308 225 207 153
0.387765 -0.066434 -1.708071 0.091478 -0.322005 -0.942308 251 232 174
1.837124 0.144868 -1.639575 0.091478 -0.322005 -0.942308 255 235 173
2.341372 -0.554137 -0.453374 0.938508 0.146419 -0.312674 255 235 173
1.837124 0.144868 -1.639575 0.938508 0.146419 -0.312674 255 235 173
2.128115 0.896046 -0.414387 0.938508 0.146419 -0.312674 255 240 192
1.203664 -1.197458 0.211259 0.630204 -0.506889 0.588138 215 199 146
2.341372 -0.554137 -0.453374 0.630204 -0.506889 0.588138 254 236 179
1.736596 0.066434 0.729499 0.630204 -0.506889 0.588138 255 236 182
-0.003754 -0.896046 -0.564184 -0.511166 -0.673296 0.534212 132 121 89
1.203664 -1.197458 0.211259 -0.511166 -0.673296 0.534212 215 199 146
0.287237 -0.144868 0.661004 -0.511166 -0.673296 0.534212 255 236 181
0.387765 -0.066434 -1.708071 -0.908273 -0.122815 -0.399947 174 161 118
-0.003754 -0.896046 -0.564184 -0.908273 -0.122815 -0.399947 132 121 89
-0.217011 0.554137 -0.525198 -0.908273 -0.122815 -0.399947 255 235 173
1.837124 0.144868 -1.639575 -0.012317 0.383794 -0.923337 255 235 173
0.387765 -0.066434 -1.708071 -0.012317 0.383794 -0.923337 255 236 177
0.920698 1.197458 -1.189831 -0.012317 0.383794 -0.923337 255 246 217
2.341372 -0.554137 -0.453374 0.908273 0.122815 0.399947 255 235 173
2.128115 0.896046 -0.414387 0.908273 0.122815 0.399947 255 235 173
1.736596 0.066434 0.729499 0.908273 0.122815 0.399947 255 235 173
1.203664 -1.197458 0.211259 0.012317 -0.383794 0.923337 215 199 146
1.736596 0.066434 0.729499 0.012317 -0.383794 0.923337 255 237 190
0.287237 -0.144868 0.661004 0.012317 -0.383794 0.923337 255 236 181
-0.003754 -0.896046 -0.564184 -0.938508 -0.146419 0.312674 132 121 89
0.287237 -0.144868 0.661004 -0.938508 -0.146419 0.312674 255 235 174
-0.217011 0.554137 -0.525198 -0.938508 -0.146419 0.312674 255 235 173
0.387765 -0.066434 -1.708071 -0.630204 0.506889 -0.588138 255 236 177
-0.217011 0.554137 -0.525198 -0.630204 0.506889 -0.588138 255 247 221
0.920698 1.197458 -1.189831 -0.630204 0.506889 -0.588138 255 246 217
1.837124 0.144868 -1.639575 0.511166 0.673296 -0.534212 255 235 173
0.920698 1.197458 -1.189831 0.511166 0.673296 -0.534212 255 246 217
2.128115 0.896046 -0.414387 0.511166 0.673296 -0.534212 255 240 192
1.736596 0.066434 0.729499 0.462254 0.635110 0.618834 255 255 255
2.128115 0.896046 -0.414387 0.462254 0.635110 0.618834 255 255 255
0.858582 1.148982 0.274336 0.462254 0.635110 0.618834 255 255 255
0.287237 -0.144868 0.661004 -0.091478 0.322005 0.942308 255 236 181
1.736596 0.066434 0.729499 -0.091478 0.322005 0.942308 255 237 183
0.858582 1.148982 0.274336 -0.091478 0.322005 0.942308 255 249 234
-0.217011 0.554137 -0.525198 -0.679123 0.468709 0.564893 255 255 255
0.287237 -0.144868 0.661004 -0.679123 0.468709 0.564893 255 255 255
0.858582 1.148982 0.274336 -0.679123 0.468709 0.564893 255 255 255
0.920698 1.197458 -1.189831 -0.488581 0.872481 0.008159 255 255 255
-0.217011 0.554137 -0.525198 -0.488581 0.872481 0.008159 255 255 255
0.858582 1.148982 0.274336 -0.488581 0.872481 0.008159 255 255 255
2.128115 0.896046 -0.414387 0.216828 0.975328 0.041490 255 255 255
0.920698 1.197458 -1.189831 0.216828 0.975328 0.041490 255 255 255
0.858582 1.148982 0.274336 0.216828 0.975328 0.041490 255 255 255
0.703038 -0.172859 -1.181977 0.488581 -0.872481 -0.008159 255 255 255
1.778632 0.421986 -0.382444 0.488581 -0.872481 -0.008159 255 255 255
0.640923 -0.221336 0.282190 0.488581 -0.872481 -0.008159 255 255 255
1.778632 0.421986 -0.382444 0.679123 -0.468709 -0.564893 255 238 185
0.703038 -0.172859 -1.181977 0.679123 -0.468709 -0.564893 255 237 181
1.274383 1.120991 -1.568645 0.679123 -0.468709 -0.564893 255 242 203
0.703038 -0.172859 -1.181977 -0.216828 -0.975328 -0.041490 255 255 255
0.640923 -0.221336 0.282190 -0.216828 -0.975328 -0.041490 255 255 255
-0.566494 0.080076 -0.493254 -0.216828 -0.975328 -0.041490 255 255 255
0.703038 -0.172859 -1.181977 -0.462254 -0.635110 -0.618834 255 235 173
-0.566494 0.080076 -0.493254 -0.462254 -0.635110 -0.618834 255 235 173
-0.174976 0.909688 -1.637141 -0.462254 -0.635110 -0.618834 255 235 173
0.703038 -0.172859 -1.181977 0.091478 -0.322005 -0.942308 255 237 181
-0.174976 0.909688 -1.637141 0.091478 -0.322005 -0.942308 255 241 198
1.274383 1.120991 -1.568645 0.091478 -0.322005 -0.942308 255 242 203
1.778632 0.421986 -0.382444 0.938508 0.146419 -0.312674 255 238 186
1.274383 1.120991 -1.568645 0.938508 0.146419 -0.312674 255 242 203
1.565374 1.872169 -0.343457 0.938508 0.146419 -0.312674 255 244 213
0.640923 -0.221336 0.282190 0.630204 -0.506889 0.588138 255 255 255
1.778632 0.421986 -0.382444 0.630204 -0.506889 0.588138 255 255 255
1.173855 1.042557 0.800429 0.630204 -0.506889 0.588138 255 255 255
-0.566494 0.080076 -0.493254 -0.511166 -0.673296 0.534212 255 255 255
0.640923 -0.221336 0.282190 -0.511166 -0.673296 0.534212 255 255 255
-0.275503 0.831254 0.731934 -0.511166 -0.673296 0.534212 255 255 255
-0.174976 0.909688 -1.637141 -0.908273 -0.122815 -0.399947 255 235 173
-0.566494 0.080076 -0.493254 -0.908273 -0.122815 -0.399947 255 235 173
-0.779752 1.530259 -0.454267 -0.908273 -0.122815 -0.399947 255 235 173
1.274383 1.120991 -1.568645 -0.012317 0.383794 -0.923337 255 242 203
-0.174976 0.909688 -1.637141 -0.012317 0.383794 -0.923337 255 241 198
0.357957 2.173581 -1.118901 -0.012317 0.383794 -0.923337 255 245 217
1.778632 0.421986 -0.382444 0.908273 0.122815 0.399947 255 249 234
1.565374 1.872169 -0.343457 0.908273 0.122815 0.399947 255 247 227
1.173855 1.042557 0.800429 0.908273 0.122815 0.399947 255 253 252
0.640923 -0.221336 0.282190 0.012317 -0.383794 0.923337 255 255 255
1.173855 1.042557 0.800429 0.012317 -0.383794 0.923337 255 255 255
-0.275503 0.831254 0.731934 0.012317 -0.383794 0.923337 255 255 255
-0.566494 0.080076 -0.493254 -0.938508 -0.146419 0.312674 255 235 173
-0.275503 0.831254 0.731934 -0.938508 -0.146419 0.312674 255 235 173
-0.779752 1.530259 -0.454267 -0.938508 -0.146419 0.312674 255 235 173
-0.174976 0.909688 -1.637141 -0.630204 0.506889 -0.588138 255 241 198
-0.779752 1.530259 -0.454267 -0.630204 0.506889 -0.588138 255 243 203
0.357957 2.173581 -1.118901 -0.630204 0.506889 -0.588138 255 245 217
1.274383 1.120991 -1.568645 0.511166 0.673296 -0.534212 255 242 203
0.357957 2.173581 -1.118901 0.511166 0.673296 -0.534212 255 245 217
1.565374 1.872169 -0.343457 0.511166 0.673296 -0.534212 255 244 213
1.173855 1.042557 0.800429 0.462255 0.635110 0.618834 255 253 252
1.565374 1.872169 -0.343457 0.462255 0.635110 0.618834 255 247 227
0.295841 2.125104 0.345266 0.462255 0.635110 0.618834 255 252 245
-0.275503 0.831254 0.731934 -0.091478 0.322005 0.942308 255 248 227
1.173855 1.042557 0.800429 -0.091478 0.322005 0.942308 255 252 241
0.295841 2.125104 0.345266 -0.091478 0.322005 0.942308 255 247 226
-0.779752 1.530259 -0.454267 -0.679123 0.468709 0.564893 255 250 236
-0.275503 0.831254 0.731934 -0.679123 0.468709 0.564893 255 248 227
0.295841 2.125104 0.345266 -0.679123 0.468709 0.564893 255 247 226
0.357957 2.173581 -1.118901 -0.488581 0.872481 0.008159 255 245 217
-0.779752 1.530259 -0.454267 -0.488581 0.872481 0.008159 255 243 204
0.295841 2.125104 0.345266 -0.488581 0.872481 0.008159 255 248 226
1.565374 1.872169 -0.343457 0.216828 0.975328 0.041490 255 247 227
0.357957 2.173581 -1.118901 0.216828 0.975328 0.041490 255 251 235
0.295841 2.125104 0.345266 0.216828 0.975328 0.041490 255 252 245
0.485778 -0.233772 -0.112247 0.488580 -0.872481 -0.008159 208 192 141
1.246763 0.187082 0.453425 0.488580 -0.872481 -0.008159 255 235 173
0.441831 -0.268069 0.923655 0.488580 -0.872481 -0.008159 255 235 173
1.246763 0.187082 0.453425 0.679123 -0.468709 -0.564893 255 255 255
0.485778 -0.233772 -0.112247 0.679123 -0.468709 -0.564893 255 255 255
0.890006 0.681630 -0.385815 0.679123 -0.468709 -0.564893 255 255 255
0.485778 -0.233772 -0.112247 -0.216828 -0.975328 -0.041490 206 190 140
0.441831 -0.268069 0.923655 -0.216828 -0.975328 -0.041490 255 235 173
-0.412419 -0.054820 0.375026 -0.216828 -0.975328 -0.041490 255 235 173
0.485778 -0.233772 -0.112247 -0.462254 -0.635110 -0.618834 255 255 255
-0.412419 -0.054820 0.375026 -0.462254 -0.635110 -0.618834 255 255 255
-0.135419 0.532133 -0.434276 -0.462254 -0.635110 -0.618834 255 255 255
0.485778 -0.233772 -0.112247 0.091478 -0.322005 -0.942308 255 255 255
-0.135419 0.532133 -0.434276 0.091478 -0.322005 -0.942308 255 255 255
0.890006 0.681630 -0.385815 0.091478 -0.322005 -0.942308 255 255 255
1.246763 0.187082 0.453425 0.938508 0.146419 -0.312674 255 255 255
0.890006 0.681630 -0.385815 0.938508 0.146419 -0.312674 255 255 255
1.095883 1.213090 0.481008 0.938508 0.146419 -0.312674 255 255 255
0.441831 -0.268069 0.923655 0.630204 -0.506889 0.588138 255 235 174
1.246763 0.187082 0.453425 0.630204 -0.506889 0.588138 255 241 200
0.818882 0.626138 1.290311 0.630204 -0.506889 0.588138 255 247 222
-0.412419 -0.054820 0.375026 -0.511166 -0.673296 0.534212 255 238 185
0.441831 -0.268069 0.923655 -0.511166 -0.673296 0.534212 255 235 174
-0.206543 0.476641 1.241850 -0.511166 -0.673296 0.534212 255 245 212
-0.135419 0.532133 -0.434276 -0.908273 -0.122815 -0.399947 255 235 173
-0.412419 -0.054820 0.375026 -0.908273 -0.122815 -0.399947 255 235 173
-0.563300 0.971188 0.402610 -0.908273 -0.122815 -0.399947 255 235 173
0.890006 0.681630 -0.385815 -0.012317 0.383794 -0.923337 255 255 255
-0.135419 0.532133 -0.434276 -0.012317 0.383794 -0.923337 255 255 255
0.241632 1.426340 -0.067620 -0.012317 0.383794 -0.923337 255 255 255
1.246763 0.187082 0.453425 0.908273 0.122815 0.399947 255 255 255
1.095883 1.213090 0.481008 0.908273 0.122815 0.399947 255 255 255
0.818882 0.626138 1.290311 0.908273 0.122815 0.399947 255 255 255
0.441831 -0.268069 0.923655 0.012317 -0.383794 0.923337 255 235 174
0.818882 0.626138 1.290311 0.012317 -0.383794 0.923337 255 247 222
-0.206543 0.476641 1.241850 0.012317 -0.383794 0.923337 255 245 212
-0.412419 -0.054820 0.375026 -0.938508 -0.146419 0.312674 255 235 173
-0.206543 0.476641 1.241850 -0.938508 -0.146419 0.312674 255 235 173
-0.563300 0.971188 0.402610 -0.938508 -0.146419 0.312674 255 235 173
-0.135419 0.532133 -0.434276 -0.630204 0.506889 -0.588138 255 235 173
-0.563300 0.971188 0.402610 -0.630204 0.506889 -0.588138 255 235 173
0.241632 1.426340 -0.067620 -0.630204 0.506889 -0.588138 255 235 173
0.890006 0.681630 -0.385815 0.511166 0.673296 -0.534212 255 255 255
0.241632 1.426340 -0.067620 0.511166 0.673296 -0.534212 255 255 255
1.095883 1.213090 0.481008 0.511166 0.673296 -0.534212 255 255 255
0.818882 0.626138 1.290311 0.462254 0.635110 0.618834 255 255 255
1.095883 1.213090 0.481008 0.462254 0.635110 0.618834 255 255 255
0.197685 1.392043 0.968281 0.462254 0.635110 0.618834 255 255 255
-0.206543 0.476641 1.241850 -0.091478 0.322005 0.942308 255 245 212
0.818882 0.626138 1.290311 -0.091478 0.322005 0.942308 255 247 222
0.197685 1.392043 0.968281 -0.091478 0.322005 0.942308 255 249 233
-0.563300 0.971188 0.402610 -0.679123 0.468709 0.564893 255 249 229
-0.206543 0.476641 1.241850 -0.679123 0.468709 0.564893 255 245 212
0.197685 1.392043 0.968281 -0.679123 0.468709 0.564893 255 249 233
0.241632 1.426340 -0.067620 -0.488581 0.872481 0.008159 255 235 173
-0.563300 0.971188 0.402610 -0.488581 0.872481 0.008159 255 235 173
0.197685 1.392043 0.968281 -0.488581 0.872481 0.008159 255 235 173
1.095883 1.213090 0.481008 0.216828 0.975328 0.041490 255 255 255
0.241632 1.426340 -0.067620 0.216828 0.975328 0.041490 255 255 255
0.197685 1.392043 0.968281 0.216828 0.975328 0.041490 255 255 255
1.472603 0.193305 0.292120 0.764784 -0.643240 -0.036717 255 255 255
2.198324 1.029452 0.759912 0.764784 -0.643240 -0.036717 255 255 255
1.601465 0.278475 1.484085 0.764784 -0.643240 -0.036717 255 255 255
2.198324 1.029452 0.759912 0.719906 -0.266225 -0.640983 255 255 255
1.472603 0.193305 0.292120 0.719906 -0.266225 -0.640983 255 255 255
1.479176 1.305884 -0.162597 0.719906 -0.266225 -0.640983 255 255 255
1.472603 0.193305 0.292120 0.146499 -0.987695 0.054737 255 235 173
1.601465 0.278475 1.484085 0.146499 -0.987695 0.054737 255 235 173
0.513416 0.090771 1.009136 0.146499 -0.987695 0.054737 255 235 173
1.472603 0.193305 0.292120 -0.280506 -0.823560 -0.493017 255 255 255
0.513416 0.090771 1.009136 -0.280506 -0.823560 -0.493017 255 255 255
0.437848 0.725755 -0.008578 -0.280506 -0.823560 -0.493017 255 255 255
1.472603 0.193305 0.292120 0.073885 -0.377667 -0.922989 255 255 255
0.437848 0.725755 -0.008578 0.073885 -0.377667 -0.922989 255 255 255
1.479176 1.305884 -0.162597 0.073885 -0.377667 -0.922989 255 255 255
2.198324 1.029452 0.759912 0.771092 0.425607 -0.473577 255 249 229
1.479176 1.305884 -0.162597 0.771092 0.425607 -0.473577 255 246 220
1.612092 2.078673 0.748335 0.771092 0.425607 -0.473577 255 248 230
1.601465 0.278475 1.484085 0.843702 -0.184407 0.504143 255 244 218
2.198324 1.029452 0.759912 0.843702 -0.184407 0.504143 255 253 249
1.687660 1.443689 1.766049 0.843702 -0.184407 0.504143 255 252 243
0.513416 0.090771 1.009136 -0.156699 -0.741742 0.652122 255 239 189
1.601465 0.278475 1.484085 -0.156699 -0.741742 0.652122 255 238 191
0.646333 0.863560 1.920068 -0.156699 -0.741742 0.652122 255 248 226
0.437848 0.725755 -0.008578 -0.847605 -0.476167 -0.234159 255 235 173
0.513416 0.090771 1.009136 -0.847605 -0.476167 -0.234159 255 235 173
-0.072816 1.139992 0.997559 -0.847605 -0.476167 -0.234159 255 235 173
1.479176 1.305884 -0.162597 -0.274188 0.245296 -0.929866 255 255 255
0.437848 0.725755 -0.008578 -0.274188 0.245296 -0.929866 255 255 255
0.524044 1.890969 0.273386 -0.274188 0.245296 -0.929866 255 255 255
2.198324 1.029452 0.759912 0.847605 0.476167 0.234159 255 253 249
1.612092 2.078673 0.748335 0.847605 0.476167 0.234159 255 249 237
1.687660 1.443689 1.766049 0.847605 0.476167 0.234159 255 252 243
1.601465 0.278475 1.484085 0.274188 -0.245296 0.929866 255 242 205
1.687660 1.443689 1.766049 0.274188 -0.245296 0.929866 255 252 242
0.646333 0.863560 1.920068 0.274188 -0.245296 0.929866 255 248 226
0.513416 0.090771 1.009136 -0.771092 -0.425607 0.473576 255 239 189
0.646333 0.863560 1.920068 -0.771092 -0.425607 0.473576 255 248 226
-0.072816 1.139992 0.997559 -0.771092 -0.425607 0.473576 255 248 230
0.437848 0.725755 -0.008578 -0.843703 0.184407 -0.504143 255 235 173
-0.072816 1.139992 0.997559 -0.843703 0.184407 -0.504143 255 235 173
0.524044 1.890969 0.273386 -0.843703 0.184407 -0.504143 255 235 173
1.479176 1.305884 -0.162597 0.156699 0.741742 -0.652122 255 246 220
0.524044 1.890969 0.273386 0.156699 0.741742 -0.652122 255 248 230
1.612092 2.078673 0.748335 0.156699 0.741742 -0.652122 255 248 230
1.687660 1.443689 1.766049 0.280507 0.823560 0.493017 255 252 243
1.612092 2.078673 0.748335 0.280507 0.823560 0.493017 255 249 237
0.652905 1.976140 1.465351 0.280507 0.823560 0.493017 255 251 239
0.646333 0.863560 1.920068 -0.073885 0.377666 0.922989 255 248 226
1.687660 1.443689 1.766049 -0.073885 0.377666 0.922989 255 252 242
0.652905 1.976140 1.465351 -0.073885 0.377666 0.922989 255 248 227
-0.072816 1.139992 0.997559 -0.719906 0.266225 0.640983 255 248 230
0.646333 0.863560 1.920068 -0.719906 0.266225 0.640983 255 248 226
0.652905 1.976140 1.465351 -0.719906 0.266225 0.640983 255 248 228
0.524044 1.890969 0.273386 -0.764784 0.643240 0.036717 255 235 173
-0.072816 1.139992 0.997559 -0.764784 0.643240 0.036717 255 235 173
0.652905 1.976140 1.465351 -0.764784 0.643240 0.036717 255 236 176
1.612092 2.078673 0.748335 -0.146499 0.987695 -0.054737 255 248 230
0.524044 1.890969 0.273386 -0.146499 0.987695 -0.054737 255 248 230
0.652905 1.976140 1.465351 -0.146499 0.987695 -0.054737 255 243 206
2.263209 -0.107734 0.822621 0.764784 -0.643240 -0.036717 255 239 193
2.850262 0.568646 1.201030 0.764784 -0.643240 -0.036717 255 250 235
2.367447 -0.038838 1.786831 0.764784 -0.643240 -0.036717 255 235 173
2.850262 0.568646 1.201030 0.719906 -0.266225 -0.640983 255 255 255
2.263209 -0.107734 0.822621 0.719906 -0.266225 -0.640983 255 255 255
2.268525 0.792259 0.454789 0.719906 -0.266225 -0.640983 255 255 255
2.263209 -0.107734 0.822621 0.146499 -0.987695 0.054737 255 236 174
2.367447 -0.038838 1.786831 0.146499 -0.987695 0.054737 255 235 173
1.487298 -0.190677 1.402633 0.146499 -0.987695 0.054737 255 235 173
2.263209 -0.107734 0.822621 -0.280506 -0.823560 -0.493017 255 237 180
1.487298 -0.190677 1.402633 -0.280506 -0.823560 -0.493017 255 235 173
1.426169 0.322978 0.579378 -0.280506 -0.823560 -0.493017 255 235 174
2.263209 -0.107734 0.822621 0.073885 -0.377667 -0.922989 255 255 255
1.426169 0.322978 0.579378 0.073885 -0.377667 -0.922989 255 255 255
2.268525 0.792259 0.454789 0.073885 -0.377667 -0.922989 255 255 255
2.850262 0.568646 1.201030 0.771093 0.425607 -0.473576 255 248 226
2.268525 0.792259 0.454789 0.771093 0.425607 -0.473576 255 247 222
2.376045 1.417387 1.191664 0.771093 0.425607 -0.473576 255 242 201
2.367447 -0.038838 1.786831 0.843702 -0.184407 0.504143 255 235 173
2.850262 0.568646 1.201030 0.843702 -0.184407 0.504143 255 250 236
2.437173 0.903733 2.014919 0.843702 -0.184407 0.504143 255 250 237
1.487298 -0.190677 1.402633 -0.156699 -0.741743 0.652122 255 235 173
2.367447 -0.038838 1.786831 -0.156699 -0.741743 0.652122 255 235 173
1.594817 0.434452 2.139509 -0.156699 -0.741743 0.652122 255 241 196
1.426169 0.322978 0.579378 -0.847605 -0.476167 -0.234159 255 235 173
1.487298 -0.190677 1.402633 -0.847605 -0.476167 -0.234159 255 235 173
1.013080 0.658064 1.393268 -0.847605 -0.476167 -0.234159 255 235 173
2.268525 0.792259 0.454789 -0.274188 0.245296 -0.929866 255 255 255
1.426169 0.322978 0.579378 -0.274188 0.245296 -0.929866 255 255 255
1.495895 1.265548 0.807466 -0.274188 0.245296 -0.929866 255 255 255
2.850262 0.568646 1.201030 0.847605 0.476167 0.234159 255 250 238
2.376045 1.417387 1.191664 0.847605 0.476167 0.234159 255 250 237
2.437173 0.903733 2.014919 0.847605 0.476167 0.234159 255 250 239
2.367447 -0.038838 1.786831 0.274189 -0.245296 0.929866 255 235 173
2.437173 0.903733 2.014919 0.274189 -0.245296 0.929866 255 250 237
1.594817 0.434452 2.139509 0.274189 -0.245296 0.929866 255 241 196
1.487298 -0.190677 1.402633 -0.771093 -0.425607 0.473576 255 235 173
1.594817 0.434452 2.139509 -0.771093 -0.425607 0.473576 255 241 196
1.013080 0.658064 1.393268 -0.771093 -0.425607 0.473576 255 247 223
1.426169 0.322978 0.579378 -0.843703 0.184407 -0.504143 255 255 255
1.013080 0.658064 1.393268 -0.843703 0.184407 -0.504143 255 255 255
1.495895 1.265548 0.807466 -0.843703 0.184407 -0.504143 255 255 255
2.268525 0.792259 0.454789 0.156699 0.741743 -0.652122 255 247 222
1.495895 1.265548 0.807466 0.156699 0.741743 -0.652122 255 250 236
2.376045 1.417387 1.191664 0.156699 0.741743 -0.652122 255 242 201
2.437173 0.903733 2.014919 0.280506 0.823560 0.493017 255 250 239
2.376045 1.417387 1.191664 0.280506 0.823560 0.493017 255 250 237
1.600134 1.334445 1.771677 0.280506 0.823560 0.493017 255 252 244
1.594817 0.434452 2.139509 -0.073884 0.377667 0.922989 255 241 196
2.437173 0.903733 2.014919 -0.073884 0.377667 0.922989 255 250 237
1.600134 1.334445 1.771677 -0.073884 0.377667 0.922989 255 252 243
1.013080 0.658064 1.393268 -0.719906 0.266225 0.640983 255 247 223
1.594817 0.434452 2.139509 -0.719906 0.266225 0.640983 255 241 196
1.600134 1.334445 1.771677 -0.719906 0.266225 0.640983 255 252 243
1.495895 1.265548 0.807466 -0.764784 0.643240 0.036717 255 255 255
1.013080 0.658064 1.393268 -0.764784 0.643240 0.036717 255 255 255
1.600134 1.334445 1.771677 -0.764784 0.643240 0.036717 255 255 255
2.376045 1.417387 1.191664 -0.146499 0.987695 -0.054737 255 249 237
1.495895 1.265548 0.807466 -0.146499 0.987695 -0.054737 255 253 252
1.600134 1.334445 1.771677 -0.146499 0.987695 -0.054737 255 252 244
2.236303 -0.483354 -0.526638 0.764784 -0.643240 -0.036717 255 235 173
3.101399 0.513377 0.030996 0.764784 -0.643240 -0.036717 251 231 170
2.389912 -0.381826 0.894247 0.764784 -0.643240 -0.036717 186 172 126
3.101399 0.513377 0.030996 0.719906 -0.266226 -0.640983 255 236 178
2.236303 -0.483354 -0.526638 0.719906 -0.266226 -0.640983 255 235 173
2.244137 0.842898 -1.068683 0.719906 -0.266226 -0.640983 255 236 177
2.236303 -0.483354 -0.526638 0.146499 -0.987695 0.054737 249 229 169
2.389912 -0.381826 0.894247 0.146499 -0.987695 0.054737 186 172 126
1.092901 -0.605580 0.328084 0.146499 -0.987695 0.054737 217 199 147
2.236303 -0.483354 -0.526638 -0.280506 -0.823560 -0.493017 255 255 255
1.092901 -0.605580 0.328084 -0.280506 -0.823560 -0.493017 255 255 255
1.002820 0.151354 -0.885085 -0.280506 -0.823560 -0.493017 255 255 255
2.236303 -0.483354 -0.526638 0.073885 -0.377667 -0.922989 255 235 173
1.002820 0.151354 -0.885085 0.073885 -0.377667 -0.922989 255 238 187
2.244137 0.842898 -1.068683 0.073885 -0.377667 -0.922989 255 236 177
3.101399 0.513377 0.030996 0.771093 0.425607 -0.473576 255 237 180
2.244137 0.842898 -1.068683 0.771093 0.425607 -0.473576 255 236 177
2.402580 1.764103 0.017194 0.771093 0.425607 -0.473576 255 247 226
2.389912 -0.381826 0.894247 0.843703 -0.184407 0.504143 255 255 255
3.101399 0.513377 0.030996 0.843703 -0.184407 0.504143 255 255 255
2.492661 1.007169 1.230363 0.843703 -0.184407 0.504143 255 255 255
1.092901 -0.605580 0.328084 -0.156699 -0.741743 0.652122 212 196 144
2.389912 -0.381826 0.894247 -0.156699 -0.741743 0.652122 255 235 174
1.251345 0.315625 1.413961 -0.156699 -0.741743 0.652122 255 242 200
1.002820 0.151354 -0.885085 -0.847605 -0.476167 -0.234159 255 255 255
1.092901 -0.605580 0.328084 -0.847605 -0.476167 -0.234159 255 255 255
0.394082 0.645146 0.314282 -0.847605 -0.476167 -0.234159 255 255 255
2.244137 0.842898 -1.068683 -0.274188 0.245296 -0.929866 255 236 177
1.002820 0.151354 -0.885085 -0.274188 0.245296 -0.929866 255 238 187
1.105570 1.540349 -0.548970 -0.274188 0.245296 -0.929866 255 246 220
3.101399 0.513377 0.030996 0.847605 0.476167 0.234159 253 245 211
2.402580 1.764103 0.017194 0.847605 0.476167 0.234159 255 247 229
2.492661 1.007169 1.230363 0.847605 0.476167 0.234159 255 252 245
2.389912 -0.381826 0.894247 0.274189 -0.245296 0.929866 255 241 198
2.492661 1.007169 1.230363 0.274189 -0.245296 0.929866 255 235 173
1.251345 0.315625 1.413961 0.274189 -0.245296 0.929866 255 235 173
1.092901 -0.605580 0.328084 -0.771093 -0.425607 0.473576 212 196 144
1.251345 0.315625 1.413961 -0.771093 -0.425607 0.473576 255 242 200
0.394082 0.645146 0.314282 -0.771093 -0.425607 0.473576 255 248 227
1.002820 0.151354 -0.885085 -0.843703 0.184407 -0.504143 255 255 255
0.394082 0.645146 0.314282 -0.843703 0.184407 -0.504143 255 255 255
1.105570 1.540349 -0.548970 -0.843703 0.184407 -0.504143 255 255 255
2.244137 0.842898 -1.068683 0.156699 0.741743 -0.652122 255 236 177
1.105570 1.540349 -0.548970 0.156699 0.741743 -0.652122 255 246 220
2.402580 1.764103 0.017194 0.156699 0.741743 -0.652122 255 247 226
2.492661 1.007169 1.230363 0.280506 0.823560 0.493017 255 252 245
2.402580 1.764103 0.017194 0.280506 0.823560 0.493017 255 247 229
1.259179 1.641877 0.871916 0.280506 0.823560 0.493017 255 253 249
1.251345 0.315625 1.413961 -0.073884 0.377667 0.922989 255 255 255
2.492661 1.007169 1.230363 -0.073884 0.377667 0.922989 255 255 255
1.259179 1.641877 0.871916 -0.073884 0.377667 0.922989 255 255 255
0.394082 0.645146 0.314282 -0.719906 0.266225 0.640983 255 255 255
1.251345 0.315625 1.413961 -0.719906 0.266225 0.640983 255 255 255
1.259179 1.641877 0.871916 -0.719906 0.266225 0.640983 255 255 255
1.105570 1.540349 -0.548970 -0.764784 0.643240 0.036717 255 255 255
0.394082 0.645146 0.314282 -0.764784 0.643240 0.036717 255 255 255
1.259179 1.641877 0.871916 -0.764784 0.643240 0.036717 255 255 255
2.402580 1.764103 0.017194 -0.146499 0.987695 -0.054737 255 247 226
1.105570 1.540349 -0.548970 -0.146499 0.987695 -0.054737 255 246 220
1.259179 1.641877 0.871916 -0.146499 0.987695 -0.054737 255 250 233
3.218004 -0.577238 -0.041064 0.764784 -0.643240 -0.036717 208 192 141
4.018217 0.344737 0.474746 0.764784 -0.643240 -0.036717 255 248 225
3.360092 -0.483325 1.273252 0.764784 -0.643240 -0.036717 235 217 160
4.018217 0.344737 0.474746 0.719906 -0.266225 -0.640983 255 248 225
3.218004 -0.577238 -0.041064 0.719906 -0.266225 -0.640983 208 192 141
3.225251 0.649543 -0.542456 0.719906 -0.266225 -0.640983 255 246 215
3.218004 -0.577238 -0.041064 0.146499 -0.987695 0.054737 208 192 141
3.360092 -0.483325 1.273252 0.146499 -0.987695 0.054737 197 182 134
2.160359 -0.690297 0.749552 0.146499 -0.987695 0.054737 122 112 82
3.218004 -0.577238 -0.041064 -0.280506 -0.823560 -0.493016 208 192 141
2.160359 -0.690297 0.749552 -0.280506 -0.823560 -0.493016 122 112 82
2.077034 0.009866 -0.372628 -0.280506 -0.823560 -0.493016 255 235 173
3.218004 -0.577238 -0.041064 0.073885 -0.377667 -0.922989 208 192 141
2.077034 0.009866 -0.372628 0.073885 -0.377667 -0.922989 255 235 173
3.225251 0.649543 -0.542456 0.073885 -0.377667 -0.922989 255 235 173
4.018217 0.344737 0.474746 0.771093 0.425607 -0.473576 255 248 225
3.225251 0.649543 -0.542456 0.771093 0.425607 -0.473576 242 250 248
3.371811 1.501657 0.461980 0.771093 0.425607 -0.473576 255 238 191
3.360092 -0.483325 1.273252 0.843702 -0.184407 0.504143 255 235 173
4.018217 0.344737 0.474746 0.843702 -0.184407 0.504143 255 248 225
3.455135 0.801494 1.584159 0.843702 -0.184407 0.504143 255 247 224
2.160359 -0.690297 0.749552 -0.156699 -0.741743 0.652122 255 235 173
3.360092 -0.483325 1.273252 -0.156699 -0.741743 0.652122 214 197 145
2.306919 0.161816 1.753987 -0.156699 -0.741743 0.652122 255 235 180
2.077034 0.009866 -0.372628 -0.847605 -0.476167 -0.234158 255 235 173
2.160359 -0.690297 0.749552 -0.847605 -0.476167 -0.234158 255 235 173
1.513953 0.466623 0.736786 -0.847605 -0.476167 -0.234158 255 235 173
3.225251 0.649543 -0.542456 -0.274188 0.245296 -0.929866 255 255 255
2.077034 0.009866 -0.372628 -0.274188 0.245296 -0.929866 255 255 255
2.172078 1.294685 -0.061721 -0.274188 0.245296 -0.929866 255 255 255
4.018217 0.344737 0.474746 0.847605 0.476167 0.234159 255 248 225
3.371811 1.501657 0.461980 0.847605 0.476167 0.234159 255 238 191
3.455135 0.801494 1.584159 0.847605 0.476167 0.234159 255 249 233
3.360092 -0.483325 1.273252 0.274189 -0.245296 0.929866 214 197 145
3.455135 0.801494 1.584159 0.274189 -0.245296 0.929866 255 247 224
2.306919 0.161816 1.753987 0.274189 -0.245296 0.929866 255 236 183
2.160359 -0.690297 0.749552 -0.771093 -0.425607 0.473576 255 235 173
2.306919 0.161816 1.753987 -0.771093 -0.425607 0.473576 255 235 180
1.513953 0.466623 0.736786 -0.771093 -0.425607 0.473576 255 246 218
2.077034 0.009866 -0.372628 -0.843703 0.184407 -0.504143 255 255 255
1.513953 0.466623 0.736786 -0.843703 0.184407 -0.504143 255 255 255
2.172078 1.294685 -0.061721 -0.843703 0.184407 -0.504143 255 255 255
3.225251 0.649543 -0.542456 0.156699 0.741743 -0.652122 241 251 254
2.172078 1.294685 -0.061721 0.156699 0.741743 -0.652122 255 245 215
3.371811 1.501657 0.461980 0.156699 0.741743 -0.652122 255 238 191
3.455135 0.801494 1.584159 0.280507 0.823560 0.493017 255 249 233
3.371811 1.501657 0.461980 0.280507 0.823560 0.493017 255 238 191
2.314166 1.388598 1.252596 0.280507 0.823560 0.493017 255 251 239
2.306919 0.161816 1.753987 -0.073884 0.377667 0.922989 255 236 183
3.455135 0.801494 1.584159 -0.073884 0.377667 0.922989 255 247 224
2.314166 1.388598 1.252596 -0.073884 0.377667 0.922989 255 250 235
1.513953 0.466623 0.736786 -0.719906 0.266225 0.640983 255 255 255
2.306919 0.161816 1.753987 -0.719906 0.266225 0.640983 255 255 255
2.314166 1.388598 1.252596 -0.719906 0.266225 0.640983 255 255 255
2.172078 1.294685 -0.061721 -0.764784 0.643240 0.036717 255 235 174
1.513953 0.466623 0.736786 -0.764784 0.643240 0.036717 255 235 173
2.314166 1.388598 1.252596 -0.764784 0.643240 0.036717 255 235 173
3.371811 1.501657 0.461980 -0.146499 0.987695 -0.054737 255 238 191
2.172078 1.294685 -0.061721 -0.146499 0.987695 -0.054737 255 251 240
2.314166 1.388598 1.252596 -0.146499 0.987695 -0.054737 255 250 237
3.534963 -0.147268 -1.006478 0.764784 -0.643240 -0.036717 255 235 173
4.335176 0.774706 -0.490668 0.764784 -0.643240 -0.036717 255 235 173
3.677051 -0.053355 0.307839 0.764784 -0.643240 -0.036717 247 227 167
4.335176 0.774706 -0.490668 0.719906 -0.266226 -0.640983 255 241 196
3.534963 -0.147268 -1.006478 0.719906 -0.266226 -0.640983 255 235 176
3.542210 1.079513 -1.507869 0.719906 -0.266226 -0.640983 255 235 173
3.534963 -0.147268 -1.006478 0.146499 -0.987695 0.054737 255 235 173
3.677051 -0.053355 0.307839 0.146499 -0.987695 0.054737 247 227 167
2.477318 -0.260327 -0.215862 0.146499 -0.987695 0.054737 218 201 148
3.534963 -0.147268 -1.006478 -0.280506 -0.823560 -0.493016 255 235 173
2.477318 -0.260327 -0.215862 -0.280506 -0.823560 -0.493016 218 201 148
2.393993 0.439836 -1.338042 -0.280506 -0.823560 -0.493016 243 224 165
3.534963 -0.147268 -1.006478 0.073885 -0.377667 -0.922989 255 235 173
2.393993 0.439836 -1.338042 0.073885 -0.377667 -0.922989 255 235 173
3.542210 1.079513 -1.507869 0.073885 -0.377667 -0.922989 255 235 173
4.335176 0.774706 -0.490668 0.771093 0.425607 -0.473576 255 241 196
3.542210 1.079513 -1.507869 0.771093 0.425607 -0.473576 255 235 173
3.688770 1.931626 -0.503434 0.771093 0.425607 -0.473576 255 252 242
3.677051 -0.053355 0.307839 0.843702 -0.184407 0.504143 255 241 197
4.335176 0.774706 -0.490668 0.843702 -0.184407 0.504143 255 241 196
3.772094 1.231463 0.618745 0.843702 -0.184407 0.504143 255 235 173
2.477318 -0.260327 -0.215862 -0.156699 -0.741743 0.652122 255 235 173
3.677051 -0.053355 0.307839 -0.156699 -0.741743 0.652122 255 235 173
2.623878 0.591786 0.788574 -0.156699 -0.741743 0.652122 254 235 174
2.393993 0.439836 -1.338042 -0.847605 -0.476167 -0.234158 255 235 173
2.477318 -0.260327 -0.215862 -0.847605 -0.476167 -0.234158 255 235 173
1.830912 0.896593 -0.228628 -0.847605 -0.476167 -0.234158 255 235 173
3.542210 1.079513 -1.507869 -0.274188 0.245296 -0.929866 255 235 173
2.393993 0.439836 -1.338042 -0.274188 0.245296 -0.929866 255 235 173
2.489037 1.724654 -1.027135 -0.274188 0.245296 -0.929866 247 239 202
4.335176 0.774706 -0.490668 0.847605 0.476167 0.234159 255 241 196
3.688770 1.931626 -0.503434 0.847605 0.476167 0.234159 255 252 242
3.772094 1.231463 0.618745 0.847605 0.476167 0.234159 255 238 185
3.677051 -0.053355 0.307839 0.274189 -0.245296 0.929866 255 241 197
3.772094 1.231463 0.618745 0.274189 -0.245296 0.929866 255 235 173
2.623878 0.591786 0.788574 0.274189 -0.245296 0.929866 255 250 236
2.477318 -0.260327 -0.215862 -0.771093 -0.425607 0.473576 255 255 255
2.623878 0.591786 0.788574 -0.771093 -0.425607 0.473576 254 254 254
1.830912 0.896593 -0.228628 -0.771093 -0.425607 0.473576 255 255 255
2.393993 0.439836 -1.338042 -0.843703 0.184407 -0.504143 255 235 173
1.830912 0.896593 -0.228628 -0.843703 0.184407 -0.504143 255 235 173
2.489037 1.724654 -1.027135 -0.843703 0.184407 -0.504143 255 236 176
3.542210 1.079513 -1.507869 0.156699 0.741743 -0.652122 255 235 173
2.489037 1.724654 -1.027135 0.156699 0.741743 -0.652122 255 239 191
3.688770 1.931626 -0.503434 0.156699 0.741743 -0.652122 255 252 242
3.772094 1.231463 0.618745 0.280507 0.823560 0.493017 255 238 185
3.688770 1.931626 -0.503434 0.280507 0.823560 0.493017 255 252 242
2.631125 1.818568 0.287182 0.280507 0.823560 0.493017 255 249 229
2.623878 0.591786 0.788574 -0.073884 0.377667 0.922989 255 252 243
3.772094 1.231463 0.618745 -0.073884 0.377667 0.922989 255 238 185
2.631125 1.818568 0.287182 -0.073884 0.377667 0.922989 255 239 189
1.830912 0.896593 -0.228628 -0.719906 0.266225 0.640983 255 251 239
2.623878 0.591786 0.788574 -0.719906 0.266225 0.640983 255 245 215
2.631125 1.818568 0.287182 -0.719906 0.266225 0.640983 255 235 174
2.489037 1.724654 -1.027135 -0.764784 0.643240 0.036717 255 235 173
1.830912 0.896593 -0.228628 -0.764784 0.643240 0.036717 255 235 173
2.631125 1.818568 0.287182 -0.764784 0.643240 0.036717 255 235 173
3.688770 1.931626 -0.503434 -0.146499 0.987695 -0.054737 255 252 242
2.489037 1.724654 -1.027135 -0.146499 0.987695 -0.054737 255 239 191
2.631125 1.818568 0.287182 -0.146499 0.987695 -0.054737 255 249 228
4.626237 -0.491587 -0.834319 0.764784 -0.643240 -0.036717 136 126 93
5.213468 0.184997 -0.455796 0.764784 -0.643240 -0.036717 255 235 173
4.730508 -0.422670 0.130182 0.764784 -0.643240 -0.036717 119 109 81
5.213468 0.184997 -0.455796 0.719906 -0.266226 -0.640983 255 235 173
4.626237 -0.491587 -0.834319 0.719906 -0.266226 -0.640983 136 126 93
4.631556 0.408676 -1.202261 0.719906 -0.266226 -0.640983 255 235 173
4.626237 -0.491587 -0.834319 0.146499 -0.987695 0.054737 135 125 92
4.730508 -0.422670 0.130182 0.146499 -0.987695 0.054737 110 100 75
3.850094 -0.574554 -0.254132 0.146499 -0.987695 0.054737 191 176 129
4.626237 -0.491587 -0.834319 -0.280506 -0.823560 -0.493017 135 125 92
3.850094 -0.574554 -0.254132 -0.280506 -0.823560 -0.493017 191 176 129
3.788946 -0.060745 -1.077634 -0.280506 -0.823560 -0.493017 255 235 173
4.626237 -0.491587 -0.834319 0.073885 -0.377667 -0.922989 136 126 93
3.788946 -0.060745 -1.077634 0.073885 -0.377667 -0.922989 255 235 173
4.631556 0.408676 -1.202261 0.073885 -0.377667 -0.922989 255 235 173
5.213468 0.184997 -0.455796 0.771092 0.425608 -0.473576 255 235 173
4.631556 0.408676 -1.202261 0.771092 0.425608 -0.473576 255 235 173
4.739107 1.033993 -0.465164 0.771092 0.425608 -0.473576 255 236 176
4.730508 -0.422670 0.130182 0.843702 -0.184407 0.504143 255 235 173
5.213468 0.184997 -0.455796 0.843702 -0.184407 0.504143 255 235 173
4.800254 0.520184 0.358338 0.843702 -0.184407 0.504143 255 247 225
3.850094 -0.574554 -0.254132 -0.156699 -0.741743 0.652122 250 230 170
4.730508 -0.422670 0.130182 -0.156699 -0.741743 0.652122 235 217 159
3.957645 0.050762 0.482965 -0.156699 -0.741743 0.652122 209 193 142
3.788946 -0.060745 -1.077634 -0.847605 -0.476167 -0.234159 255 235 173
3.850094 -0.574554 -0.254132 -0.847605 -0.476167 -0.234159 191 176 129
3.375734 0.274442 -0.263500 -0.847605 -0.476167 -0.234159 255 235 173
4.631556 0.408676 -1.202261 -0.274188 0.245296 -0.929866 255 235 173
3.788946 -0.060745 -1.077634 -0.274188 0.245296 -0.929866 255 235 173
3.858693 0.882108 -0.849478 -0.274188 0.245296 -0.929866 255 235 173
5.213468 0.184997 -0.455796 0.847605 0.476167 0.234159 255 235 173
4.739107 1.033993 -0.465164 0.847605 0.476167 0.234159 255 236 176
4.800254 0.520184 0.358338 0.847605 0.476167 0.234159 255 247 225
4.730508 -0.422670 0.130182 0.274189 -0.245296 0.929866 235 217 159
4.800254 0.520184 0.358338 0.274189 -0.245296 0.929866 243 235 214
3.957645 0.050762 0.482965 0.274189 -0.245296 0.929866 209 198 165
3.850094 -0.574554 -0.254132 -0.771093 -0.425607 0.473576 250 230 170
3.957645 0.050762 0.482965 -0.771093 -0.425607 0.473576 209 193 142
3.375734 0.274442 -0.263500 -0.771093 -0.425607 0.473576 255 235 175
3.788946 -0.060745 -1.077634 -0.843703 0.184407 -0.504143 255 235 173
3.375734 0.274442 -0.263500 -0.843703 0.184407 -0.504143 255 235 173
3.858693 0.882108 -0.849478 -0.843703 0.184407 -0.504143 255 235 173
4.631556 0.408676 -1.202261 0.156699 0.741743 -0.652122 255 235 173
3.858693 0.882108 -0.849478 0.156699 0.741743 -0.652122 255 235 173
4.739107 1.033993 -0.465164 0.156699 0.741743 -0.652122 255 235 173
4.800254 0.520184 0.358338 0.280506 0.823560 0.493017 255 247 225
4.739107 1.033993 -0.465164 0.280506 0.823560 0.493017 255 236 176
3.962963 0.951026 0.115023 0.280506 0.823560 0.493017 255 240 196
3.957645 0.050762 0.482965 -0.073884 0.377667 0.922989 209 198 165
4.800254 0.520184 0.358338 -0.073884 0.377667 0.922989 243 235 214
3.962963 0.951026 0.115023 -0.073884 0.377667 0.922989 255 240 195
3.375734 0.274442 -0.263500 -0.719906 0.266225 0.640983 255 235 175
3.957645 0.050762 0.482965 -0.719906 0.266225 0.640983 255 235 173
3.962963 0.951026 0.115023 -0.719906 0.266225 0.640983 255 243 206
3.858693 0.882108 -0.849478 -0.764784 0.643240 0.036717 255 255 255
3.375734 0.274442 -0.263500 -0.764784 0.643240 0.036717 255 255 255
3.962963 0.951026 0.115023 -0.764784 0.643240 0.036717 255 255 255
4.739107 1.033993 -0.465164 -0.146499 0.987695 -0.054737 255 235 173
3.858693 0.882108 -0.849478 -0.146499 0.987695 -0.054737 255 235 173
3.962963 0.951026 0.115023 -0.146499 0.987695 -0.054737 255 235 175
3 0 1 2
3 3 4 5
3 6 7 8
3 9 10 11
3 12 13 14
3 15 16 17
3 18 19 20
3 21 22 23
3 24 25 26
3 27 28 29
3 30 31 32
3 33 34 35
3 36 37 38
3 39 40 41
3 42 43 44
3 45 46 47
3 48 49 50
3 51 52 53
3 54 55 56
3 57 58 59
3 60 61 62
3 63 64 65
3 66 67 68
3 69 70 71
3 72 73 74
3 75 76 77
3 78 79 80
3 81 82 83
3 84 85 86
3 87 88 89
3 90 91 92
3 93 94 95
3 96 97 98
3 99 100 101
3 102 103 104
3 105 106 107
3 108 109 110
3 111 112 113
3 114 115 116
3 117 118 119
3 120 121 122
3 123 124 125
3 126 127 128
3 129 130 131
3 132 133 134
3 135 136 137
3 138 139 140
3 141 142 143
3 144 145 146
3 147 148 149
3 150 151 152
3 153 154 155
3 156 157 158
3 159 160 161
3 162 163 164
3 165 166 167
3 168 169 170
3 171 172 173
3 174 175 176
3 177 178 179
3 180 181 182
3 183 184 185
3 186 187 188
3 189 190 191
3 192 193 194
3 195 196 197
3 198 199 200
3 201 202 203
3 204 205 206
3 207 208 209
3 210 211 212
3 213 214 215
3 216 217 218
3 219 220 221
3 222 223 224
3 225 226 227
3 228 229 230
3 231 232 233
3 234 235 236
3 237 238 239
3 240 241 242
3 243 244 245
3 246 247 248
3 249 250 251
3 252 253 254
3 255 256 257
3 258 259 260
3 261 262 263
3 264 265 266
3 267 268 269
3 270 271 272
3 273 274 275
3 276 277 278
3 279 280 281
3 282 283 284
3 285 286 287
3 288 289 290
3 291 292 293
3 294 295 296
3 297 298 299
3 300 301 302
3 303 304 305
3 306 307 308
3 309 310 311
3 312 313 314
3 315 316 317
3 318 319 320
3 321 322 323
3 324 325 326
3 327 328 329
3 330 331 332
3 333 334 335
3 336 337 338
3 339 340 341
3 342 343 344
3 345 346 347
3 348 349 350
3 351 352 353
3 354 355 356
3 357 358 359
3 360 361 362
3 363 364 365
3 366 367 368
3 369 370 371
3 372 373 374
3 375 376 377
3 378 379 380
3 381 382 383
3 384 385 386
3 387 388 389
3 390 391 392
3 393 394 395
3 396 397 398
3 399 400 401
3 402 403 404
3 405 406 407
3 408 409 410
3 411 412 413
3 414 415 416
3 417 418 419
3 420 421 422
3 423 424 425
3 426 427 428
3 429 430 431
3 432 433 434
3 435 436 437
3 438 439 440
3 441 442 443
3 444 445 446
3 447 448 449
3 450 451 452
3 453 454 455
3 456 457 458
3 459 460 461
3 462 463 464
3 465 466 467
3 468 469 470
3 471 472 473
3 474 475 476
3 477 478 479
3 480 481 482
3 483 484 485
3 486 487 488
3 489 490 491
3 492 493 494
3 495 496 497
3 498 499 500
3 501 502 503
3 504 505 506
3 507 508 509
3 510 511 512
3 513 514 515
3 516 517 518
3 519 520 521
3 522 523 524
3 525 526 527
3 528 529 530
3 531 532 533
3 534 535 536
3 537 538 539
3 540 541 542
3 543 544 545
3 546 547 548
3 549 550 551
3 552 553 554
3 555 556 557
3 558 559 560
3 561 562 563
3 564 565 566
3 567 568 569
3 570 571 572
3 573 574 575
3 576 577 578
3 579 580 581
3 582 583 584
3 585 586 587
3 588 589 590
3 591 592 593
3 594 595 596
3 597 598 599
