ply
format ascii 1.0
comment Created by Blender 2.72 (sub 0) - www.blender.org, source file: 'plant.blend'
element vertex 672
property float x
property float y
property float z
property float nx
property float ny
property float nz
property uchar red
property uchar green
property uchar blue
element face 168
property list uchar uint vertex_indices
end_header
-0.181072 0.075771 -0.113452 0.153590 0.898396 -0.411456 18 18 18
0.009226 0.048310 -0.113370 0.153590 0.898396 -0.411456 18 18 18
0.003655 0.034938 -0.133652 0.153590 0.898396 -0.411456 18 18 18
-0.221530 0.054977 -0.184950 0.153590 0.898396 -0.411456 22 42 18
-0.235506 0.105080 0.040898 0.180465 0.982275 -0.050682 33 124 18
0.012236 0.052079 -0.037099 0.180465 0.982275 -0.050682 18 18 18
0.005765 0.055095 -0.068758 0.180465 0.982275 -0.050682 18 18 18
-0.178340 0.086744 -0.043837 0.180465 0.982275 -0.050682 18 39 18
-0.178340 0.086744 -0.043837 0.083724 0.934810 -0.345138 18 23 18
0.005765 0.055095 -0.068758 0.083724 0.934810 -0.345138 18 18 18
0.012319 0.054240 -0.085624 0.083724 0.934810 -0.345138 18 18 18
-0.196918 0.071850 -0.072544 0.083724 0.934810 -0.345138 18 24 18
-0.196918 0.071850 -0.072544 0.111827 0.993693 -0.008320 18 24 18
0.012319 0.054240 -0.085624 0.111827 0.993693 -0.008320 18 18 18
0.009226 0.048310 -0.113370 0.111827 0.993693 -0.008320 18 18 18
-0.181072 0.075771 -0.113452 0.111827 0.993693 -0.008320 18 18 18
-1.944543 0.404382 -0.075927 -0.402622 0.756026 -0.516063 93 195 43
-1.849912 0.433927 -0.082816 -0.402622 0.756026 -0.516063 93 195 43
-1.806240 0.424507 -0.154345 -0.402622 0.756026 -0.516063 93 195 43
-1.900135 0.401396 -0.091291 -0.402622 0.756026 -0.516063 93 195 43
-1.849912 0.433927 -0.082816 -0.480126 0.738672 -0.473120 93 195 43
-1.366864 0.675435 -0.208459 -0.480126 0.738672 -0.473120 93 195 43
-1.345095 0.606426 -0.325790 -0.480126 0.738672 -0.473120 93 195 43
-1.806240 0.424507 -0.154345 -0.480126 0.738672 -0.473120 93 195 43
-1.366864 0.675435 -0.208459 -0.556255 0.696701 -0.452976 93 195 43
-1.040360 0.901175 -0.246666 -0.556255 0.696701 -0.452976 93 195 43
-1.024167 0.844877 -0.368681 -0.556255 0.696701 -0.452976 93 195 43
-1.345095 0.606426 -0.325790 -0.556255 0.696701 -0.452976 93 195 43
-1.040360 0.901175 -0.246666 -0.125220 0.842510 -0.523924 93 195 43
-0.706033 0.978178 -0.230359 -0.125220 0.842510 -0.523924 93 195 43
-0.700341 0.892193 -0.342376 -0.125220 0.842510 -0.523924 93 195 43
-1.024167 0.844877 -0.368681 -0.125220 0.842510 -0.523924 93 195 43
-0.706033 0.978178 -0.230359 0.821289 0.411586 -0.395072 93 195 43
-0.181072 0.075771 -0.113452 0.821289 0.411586 -0.395072 18 18 18
-0.221530 0.054977 -0.184950 0.821289 0.411586 -0.395072 22 42 18
-0.700341 0.892193 -0.342376 0.821289 0.411586 -0.395072 93 195 43
-1.911805 0.418049 0.010264 -0.441951 0.877320 0.187056 93 195 43
-1.803059 0.451183 0.093809 -0.441951 0.877320 0.187056 93 195 43
-1.840355 0.454490 0.008164 -0.441951 0.877320 0.187056 93 195 43
-1.943433 0.405795 -0.024971 -0.441951 0.877320 0.187056 93 195 43
-1.803059 0.451183 0.093809 -0.484302 0.833992 0.264403 93 195 43
-1.356464 0.667004 0.224180 -0.484302 0.833992 0.264403 93 195 43
-1.382656 0.697266 0.087647 -0.484302 0.833992 0.264403 93 194 43
-1.840355 0.454490 0.008164 -0.484302 0.833992 0.264403 93 195 43
-1.356464 0.667004 0.224180 -0.566725 0.770466 0.291898 93 195 43
-1.049522 0.896402 0.208814 -0.566725 0.770466 0.291898 93 195 43
-1.059876 0.944543 0.067445 -0.566725 0.770466 0.291898 93 195 43
-1.382656 0.697266 0.087647 -0.566725 0.770466 0.291898 93 194 43
-1.049522 0.896402 0.208814 -0.106915 0.934929 0.338344 93 195 43
-0.701083 0.941415 0.189464 -0.106915 0.934929 0.338344 93 195 43
-0.711110 0.989630 0.058136 -0.106915 0.934929 0.338344 93 197 43
-1.059876 0.944543 0.067445 -0.106915 0.934929 0.338344 93 195 43
-0.701083 0.941415 0.189464 0.854941 0.454823 0.249421 93 195 43
-0.235506 0.105080 0.040898 0.854941 0.454823 0.249421 33 124 18
-0.178340 0.086744 -0.043837 0.854941 0.454823 0.249421 18 39 18
-0.711110 0.989630 0.058136 0.854941 0.454823 0.249421 93 197 43
-1.943433 0.405795 -0.024971 -0.214648 0.939598 -0.266613 93 195 43
-1.840355 0.454490 0.008164 -0.214648 0.939598 -0.266613 93 195 43
-1.833024 0.426851 -0.039654 -0.214648 0.939598 -0.266613 93 195 43
-1.945399 0.416411 -0.041466 -0.214648 0.939598 -0.266613 93 195 43
-1.840355 0.454490 0.008164 -0.361962 0.815464 -0.451666 93 195 43
-1.382656 0.697266 0.087647 -0.361962 0.815464 -0.451666 93 194 43
-1.378880 0.628066 -0.048274 -0.361962 0.815464 -0.451666 78 159 35
-1.833024 0.426851 -0.039654 -0.361962 0.815464 -0.451666 93 195 43
-1.382656 0.697266 0.087647 -0.587107 0.724117 -0.361883 93 194 43
-1.059876 0.944543 0.067445 -0.587107 0.724117 -0.361883 93 195 43
-1.053774 0.880939 -0.078396 -0.587107 0.724117 -0.361883 66 137 29
-1.378880 0.628066 -0.048274 -0.587107 0.724117 -0.361883 78 159 35
-1.059876 0.944543 0.067445 -0.110035 0.893582 -0.435206 93 195 43
-0.711110 0.989630 0.058136 -0.110035 0.893582 -0.435206 93 197 43
-0.689256 0.916112 -0.084636 -0.110035 0.893582 -0.435206 41 176 19
-1.053774 0.880939 -0.078396 -0.110035 0.893582 -0.435206 66 137 29
-0.711110 0.989630 0.058136 0.831370 0.500243 -0.242034 93 197 43
-0.178340 0.086744 -0.043837 0.831370 0.500243 -0.242034 18 44 18
-0.196918 0.071850 -0.072544 0.831370 0.500243 -0.242034 18 42 18
-0.689256 0.916112 -0.084636 0.831370 0.500243 -0.242034 41 176 19
-1.945399 0.416411 -0.041466 -0.190157 0.981476 -0.023340 93 195 43
-1.833024 0.426851 -0.039654 -0.190157 0.981476 -0.023340 93 195 43
-1.849912 0.433927 -0.082816 -0.190157 0.981476 -0.023340 93 195 43
-1.944543 0.404382 -0.075927 -0.190157 0.981476 -0.023340 93 195 43
-1.833024 0.426851 -0.039654 -0.384668 0.889303 0.247326 93 195 43
-1.378880 0.628066 -0.048274 -0.384668 0.889303 0.247326 78 159 35
-1.366864 0.675435 -0.208459 -0.384668 0.889303 0.247326 93 195 43
-1.849912 0.433927 -0.082816 -0.384668 0.889303 0.247326 93 195 43
-1.378880 0.628066 -0.048274 -0.579349 0.806041 0.121051 78 159 35
-1.053774 0.880939 -0.078396 -0.579349 0.806041 0.121051 66 137 29
-1.040360 0.901175 -0.246666 -0.579349 0.806041 0.121051 93 195 43
-1.366864 0.675435 -0.208459 -0.579349 0.806041 0.121051 93 195 43
-1.053774 0.880939 -0.078396 -0.156910 0.954927 0.251980 66 137 29
-0.689256 0.916112 -0.084636 -0.156910 0.954927 0.251980 41 176 19
-0.706033 0.978178 -0.230359 -0.156910 0.954927 0.251980 44 170 21
-1.040360 0.901175 -0.246666 -0.156910 0.954927 0.251980 93 195 43
-0.689256 0.916112 -0.084636 0.845225 0.505157 0.174390 41 176 19
-0.196918 0.071850 -0.072544 0.845225 0.505157 0.174390 18 24 18
-0.181072 0.075771 -0.113452 0.845225 0.505157 0.174390 18 18 18
-0.706033 0.978178 -0.230359 0.845225 0.505157 0.174390 44 170 21
-0.094444 0.063267 -0.023549 -0.099867 0.877135 -0.469745 18 53 18
0.012476 0.015023 -0.140989 -0.099867 0.877135 -0.469745 18 18 18
-0.004460 0.001992 -0.157096 -0.099867 0.877135 -0.469745 18 18 18
-0.186682 0.056663 -0.020895 -0.099867 0.877135 -0.469745 32 126 18
0.003849 0.082074 0.108186 0.269666 0.944019 -0.190021 58 123 29
0.062171 0.024635 -0.087192 0.269666 0.944019 -0.190021 18 18 18
0.045635 0.025523 -0.113456 0.269666 0.944019 -0.190021 18 18 18
-0.026714 0.070683 0.015428 0.269666 0.944019 -0.190021 18 32 18
-0.026714 0.070683 0.015428 -0.227327 0.884443 -0.407533 18 32 18
0.045635 0.025523 -0.113456 -0.227327 0.884443 -0.407533 18 18 18
0.033262 0.022581 -0.122419 -0.227327 0.884443 -0.407533 18 18 18
-0.072535 0.054457 0.015253 -0.227327 0.884443 -0.407533 18 41 18
-0.072535 0.054457 0.015253 0.206349 0.969478 -0.132413 18 41 18
0.033262 0.022581 -0.122419 0.206349 0.969478 -0.132413 18 18 18
0.012476 0.015023 -0.140989 0.206349 0.969478 -0.132413 18 18 18
-0.094444 0.063267 -0.023549 0.206349 0.969478 -0.132413 18 29 18
-1.142447 0.760087 1.555779 -0.544243 0.835864 -0.071636 104 200 57
-1.095621 0.772766 1.482459 -0.544243 0.835864 -0.071636 93 195 43
-1.137035 0.750570 1.403613 -0.544243 0.835864 -0.071636 93 195 43
-1.135982 0.750983 1.534922 -0.544243 0.835864 -0.071636 98 197 48
-1.095621 0.772766 1.482459 -0.574597 0.818208 -0.019365 93 195 43
-0.880574 0.920706 0.982482 -0.574597 0.818208 -0.019365 93 195 43
-0.981495 0.838995 0.894405 -0.574597 0.818208 -0.019365 93 195 44
-1.137035 0.750570 1.403613 -0.574597 0.818208 -0.019365 93 195 43
-0.880574 0.920706 0.982482 -0.623934 0.779949 0.048843 93 195 43
-0.707732 1.074388 0.632659 -0.623934 0.779949 0.048843 93 195 43
-0.806587 1.006407 0.559084 -0.623934 0.779949 0.048843 93 195 43
-0.981495 0.838995 0.894405 -0.623934 0.779949 0.048843 93 195 44
-0.707732 1.074388 0.632659 -0.463462 0.817748 -0.341307 93 195 43
-0.506927 1.084889 0.340210 -0.463462 0.817748 -0.341307 93 195 43
-0.599897 0.992866 0.290908 -0.463462 0.817748 -0.341307 93 195 43
-0.806587 1.006407 0.559084 -0.463462 0.817748 -0.341307 93 195 43
-0.506927 1.084889 0.340210 0.052129 0.345317 -0.937037 93 195 43
-0.094444 0.063267 -0.023549 0.052129 0.345317 -0.937037 18 29 18
-0.186682 0.056663 -0.020895 0.052129 0.345317 -0.937037 18 50 18
-0.599897 0.992866 0.290908 0.052129 0.345317 -0.937037 93 195 43
-1.051896 0.773482 1.591500 -0.063065 0.913848 0.401129 101 198 54
-0.932041 0.789431 1.557613 -0.063065 0.913848 0.401129 96 196 46
-1.018145 0.797579 1.541908 -0.063065 0.913848 0.401129 93 195 44
-1.103596 0.763731 1.589193 -0.063065 0.913848 0.401129 108 201 62
-0.932041 0.789431 1.557613 0.014344 0.915432 0.402217 96 196 46
-0.532191 0.927400 1.229110 0.014344 0.915432 0.402217 103 199 56
-0.656674 0.956894 1.166654 0.014344 0.915432 0.402217 93 195 43
-1.018145 0.797579 1.541908 0.014344 0.915432 0.402217 93 195 44
-0.532191 0.927400 1.229110 -0.002828 0.891602 0.452811 103 199 56
-0.344801 1.089293 0.907903 -0.002828 0.891602 0.452811 94 196 45
-0.462777 1.133819 0.823098 -0.002828 0.891602 0.452811 93 195 43
-0.656674 0.956894 1.166654 -0.002828 0.891602 0.452811 93 195 43
-0.344801 1.089293 0.907903 0.115467 0.954813 -0.273860 94 196 45
-0.155974 1.031454 0.595559 0.115467 0.954813 -0.273860 93 195 43
-0.276573 0.963551 0.498268 0.115467 0.954813 -0.273860 93 195 43
-0.462777 1.133819 0.823098 0.115467 0.954813 -0.273860 93 195 43
-0.155974 1.031454 0.595559 0.580149 0.476797 -0.660372 93 195 43
0.003849 0.082074 0.108186 0.580149 0.476797 -0.660372 58 123 29
-0.026714 0.070683 0.015428 0.580149 0.476797 -0.660372 18 32 18
-0.276573 0.963551 0.498268 0.580149 0.476797 -0.660372 93 195 43
-1.103596 0.763731 1.589193 -0.271209 0.950889 -0.149182 108 201 62
-1.018145 0.797579 1.541908 -0.271209 0.950889 -0.149182 93 195 44
-1.048212 0.766079 1.503472 -0.271209 0.950889 -0.149182 93 195 43
-1.125145 0.773172 1.580864 -0.271209 0.950889 -0.149182 108 201 64
-1.018145 0.797579 1.541908 -0.521275 0.843740 -0.127965 93 195 44
-0.656674 0.956894 1.166654 -0.521275 0.843740 -0.127965 93 195 43
-0.773597 0.880122 1.089973 -0.521275 0.843740 -0.127965 83 170 37
-1.048212 0.766079 1.503472 -0.521275 0.843740 -0.127965 93 195 43
-0.656674 0.956894 1.166654 -0.568465 0.814960 0.112643 93 195 43
-0.462777 1.133819 0.823098 -0.568465 0.814960 0.112643 93 195 43
-0.593685 1.060573 0.734428 -0.568465 0.814960 0.112643 87 181 40
-0.773597 0.880122 1.089973 -0.568465 0.814960 0.112643 83 170 37
-0.462777 1.133819 0.823098 -0.223265 0.758998 -0.611616 93 195 43
-0.276573 0.963551 0.498268 -0.223265 0.758998 -0.611616 93 195 43
-0.386862 0.831280 0.419944 -0.223265 0.758998 -0.611616 79 163 37
-0.593685 1.060573 0.734428 -0.223265 0.758998 -0.611616 87 181 40
-0.276573 0.963551 0.498268 -0.001865 0.468872 -0.883264 93 195 43
-0.026714 0.070683 0.015428 -0.001865 0.468872 -0.883264 18 32 18
-0.072535 0.054457 0.015253 -0.001865 0.468872 -0.883264 18 41 18
-0.386862 0.831280 0.419944 -0.001865 0.468872 -0.883264 79 163 37
-1.125145 0.773172 1.580864 -0.078756 0.996508 -0.027741 108 201 64
-1.048212 0.766079 1.503472 -0.078756 0.996508 -0.027741 93 195 43
-1.095621 0.772766 1.482459 -0.078756 0.996508 -0.027741 93 195 43
-1.142447 0.760087 1.555779 -0.078756 0.996508 -0.027741 104 200 57
-1.048212 0.766079 1.503472 0.044495 0.953723 0.297377 93 195 43
-0.773597 0.880122 1.089973 0.044495 0.953723 0.297377 83 170 37
-0.880574 0.920706 0.982482 0.044495 0.953723 0.297377 93 195 43
-1.095621 0.772766 1.482459 0.044495 0.953723 0.297377 93 195 43
-0.773597 0.880122 1.089973 -0.126278 0.919445 0.372390 83 170 37
-0.593685 1.060573 0.734428 -0.126278 0.919445 0.372390 87 181 40
-0.707732 1.074388 0.632659 -0.126278 0.919445 0.372390 93 195 43
-0.880574 0.920706 0.982482 -0.126278 0.919445 0.372390 93 195 43
-0.593685 1.060573 0.734428 0.670279 0.716914 0.191731 87 181 40
-0.386862 0.831280 0.419944 0.670279 0.716914 0.191731 79 163 37
-0.506927 1.084889 0.340210 0.670279 0.716914 0.191731 93 195 43
-0.707732 1.074388 0.632659 0.670279 0.716914 0.191731 93 195 43
-0.386862 0.831280 0.419944 0.895937 0.421697 -0.139530 79 163 37
-0.072535 0.054457 0.015253 0.895937 0.421697 -0.139530 18 41 18
-0.094444 0.063267 -0.023549 0.895937 0.421697 -0.139530 18 29 18
-0.506927 1.084889 0.340210 0.895937 0.421697 -0.139530 93 195 43
0.035676 0.045591 -0.037460 -0.459745 0.882365 -0.100334 18 18 18
-0.020432 -0.003576 -0.201104 -0.459745 0.882365 -0.100334 18 18 18
-0.040866 -0.013645 -0.207672 -0.459745 0.882365 -0.100334 18 18 18
-0.029481 0.019949 0.047249 -0.459745 0.882365 -0.100334 22 61 18
0.212665 0.085183 -0.041707 0.077806 0.863524 -0.498270 49 102 25
0.039882 -0.000720 -0.199518 0.077806 0.863524 -0.498270 18 18 18
0.021723 0.003778 -0.212600 0.077806 0.863524 -0.498270 18 18 18
0.119822 0.068228 -0.067546 0.077806 0.863524 -0.498270 23 50 18
0.119822 0.068228 -0.067546 -0.489810 0.871714 -0.014153 23 50 18
0.021723 0.003778 -0.212600 -0.489810 0.871714 -0.014153 18 18 18
0.003891 0.000874 -0.203851 -0.489810 0.871714 -0.014153 18 18 18
0.079935 0.039408 -0.032672 -0.489810 0.871714 -0.014153 18 35 18
0.079935 0.039408 -0.032672 0.032230 0.963671 -0.265140 18 35 18
0.003891 0.000874 -0.203851 0.032230 0.963671 -0.265140 18 18 18
-0.020432 -0.003576 -0.201104 0.032230 0.963671 -0.265140 18 18 18
0.035676 0.045591 -0.037460 0.032230 0.963671 -0.265140 18 18 18
0.689065 0.680248 1.904731 -0.213928 0.917487 0.335340 93 195 43
0.651712 0.698123 1.831680 -0.213928 0.917487 0.335340 93 195 43
0.551125 0.681857 1.812333 -0.213928 0.917487 0.335340 93 195 43
0.666993 0.673638 1.908416 -0.213928 0.917487 0.335340 93 195 43
0.651712 0.698123 1.831680 -0.307827 0.832679 0.460313 93 195 43
0.394116 0.879711 1.349429 -0.307827 0.832679 0.460313 93 195 43
0.240415 0.804347 1.364477 -0.307827 0.832679 0.460313 106 201 62
0.551125 0.681857 1.812333 -0.307827 0.832679 0.460313 93 195 43
0.394116 0.879711 1.349429 -0.298447 0.807228 0.509227 93 195 43
0.213609 1.059802 0.943818 -0.298447 0.807228 0.509227 93 195 43
0.080309 0.998860 0.976638 -0.298447 0.807228 0.509227 93 195 43
0.240415 0.804347 1.364477 -0.298447 0.807228 0.509227 106 201 62
0.213609 1.059802 0.943818 -0.386805 0.886390 -0.254350 93 195 43
0.063651 0.870429 0.554397 -0.386805 0.886390 -0.254350 93 195 43
-0.034014 0.855679 0.609041 -0.386805 0.886390 -0.254350 93 195 43
0.080309 0.998860 0.976638 -0.386805 0.886390 -0.254350 93 195 43
0.063651 0.870429 0.554397 -0.643909 0.442643 -0.624058 93 195 43
0.035676 0.045591 -0.037460 -0.643909 0.442643 -0.624058 18 18 18
-0.029481 0.019949 0.047249 -0.643909 0.442643 -0.624058 21 53 18
-0.034014 0.855679 0.609041 -0.643909 0.442643 -0.624058 93 195 43
0.774663 0.689244 1.862830 0.375224 0.868514 0.323869 93 195 43
0.805733 0.706217 1.751411 0.375224 0.868514 0.323869 93 195 43
0.745858 0.718063 1.818919 0.375224 0.868514 0.323869 93 195 43
0.737192 0.681180 1.897960 0.375224 0.868514 0.323869 93 195 43
0.805733 0.706217 1.751411 0.418326 0.875427 0.242140 93 195 43
0.803030 0.859632 1.208323 0.418326 0.875427 0.242140 93 195 43
0.677005 0.898656 1.278063 0.418326 0.875427 0.242140 93 195 43
0.745858 0.718063 1.818919 0.418326 0.875427 0.242140 93 195 43
0.803030 0.859632 1.208323 0.427345 0.869609 0.247299 93 195 43
0.665060 1.038283 0.807717 0.427345 0.869609 0.247299 97 197 48
0.524599 1.097500 0.853020 0.427345 0.869609 0.247299 93 195 43
0.677005 0.898656 1.278063 0.427345 0.869609 0.247299 93 195 43
0.665060 1.038283 0.807717 -0.312226 0.937334 -0.154660 97 197 48
0.523251 1.026981 0.428358 -0.312226 0.937334 -0.154660 93 195 43
0.361985 0.877421 0.444639 -0.312226 0.937334 -0.154660 93 195 43
0.524599 1.097500 0.853020 -0.312226 0.937334 -0.154660 93 195 43
0.523251 1.026981 0.428358 -0.323660 0.538570 -0.777938 93 195 43
0.212665 0.085183 -0.041707 -0.323660 0.538570 -0.777938 49 102 25
0.119822 0.068228 -0.067546 -0.323660 0.538570 -0.777938 23 50 18
0.361985 0.877421 0.444639 -0.323660 0.538570 -0.777938 93 195 43
0.737192 0.681180 1.897960 -0.243707 0.951897 0.185738 93 195 43
0.745858 0.718063 1.818919 -0.243707 0.951897 0.185738 93 195 43
0.700203 0.688452 1.812158 -0.243707 0.951897 0.185738 93 195 43
0.710044 0.691531 1.907906 -0.243707 0.951897 0.185738 93 195 43
0.745858 0.718063 1.818919 -0.388941 0.851377 0.351970 93 195 43
0.677005 0.898656 1.278063 -0.388941 0.851377 0.351970 93 195 43
0.532952 0.827288 1.319448 -0.388941 0.851377 0.351970 93 195 43
0.700203 0.688452 1.812158 -0.388941 0.851377 0.351970 93 195 43
0.677005 0.898656 1.278063 -0.230603 0.840167 0.490858 93 195 43
0.524599 1.097500 0.853020 -0.230603 0.840167 0.490858 93 195 43
0.353211 1.035445 0.891813 -0.230603 0.840167 0.490858 73 151 35
0.532952 0.827288 1.319448 -0.230603 0.840167 0.490858 93 195 43
0.524599 1.097500 0.853020 -0.573811 0.768588 -0.282865 93 195 43
0.361985 0.877421 0.444639 -0.573811 0.768588 -0.282865 93 195 43
0.221902 0.738276 0.490995 -0.573811 0.768588 -0.282865 84 174 39
0.353211 1.035445 0.891813 -0.573811 0.768588 -0.282865 73 151 35
0.361985 0.877421 0.444639 -0.702609 0.515725 -0.490274 93 195 43
0.119822 0.068228 -0.067546 -0.702609 0.515725 -0.490274 23 50 18
0.079935 0.039408 -0.032672 -0.702609 0.515725 -0.490274 18 35 18
0.221902 0.738276 0.490995 -0.702609 0.515725 -0.490274 84 174 39
0.710044 0.691531 1.907906 -0.002409 0.996119 0.087988 93 195 43
0.700203 0.688452 1.812158 -0.002409 0.996119 0.087988 93 195 43
0.651712 0.698123 1.831680 -0.002409 0.996119 0.087988 93 195 43
0.689065 0.680248 1.904731 -0.002409 0.996119 0.087988 93 195 43
0.700203 0.688452 1.812158 0.347096 0.925290 0.152849 93 195 43
0.532952 0.827288 1.319448 0.347096 0.925290 0.152849 93 195 43
0.394116 0.879711 1.349429 0.347096 0.925290 0.152849 93 195 43
0.651712 0.698123 1.831680 0.347096 0.925290 0.152849 93 195 43
0.532952 0.827288 1.319448 0.330458 0.902114 0.277466 93 195 43
0.353211 1.035445 0.891813 0.330458 0.902114 0.277466 73 151 35
0.213609 1.059802 0.943818 0.330458 0.902114 0.277466 93 195 43
0.394116 0.879711 1.349429 0.330458 0.902114 0.277466 93 195 43
0.353211 1.035445 0.891813 0.201788 0.800333 -0.564579 73 151 35
0.221902 0.738276 0.490995 0.201788 0.800333 -0.564579 84 174 39
0.063651 0.870429 0.554397 0.201788 0.800333 -0.564579 93 195 43
0.213609 1.059802 0.943818 0.201788 0.800333 -0.564579 93 195 43
0.221902 0.738276 0.490995 0.157597 0.571837 -0.805087 84 174 39
0.079935 0.039408 -0.032672 0.157597 0.571837 -0.805087 18 35 18
0.035676 0.045591 -0.037460 0.157597 0.571837 -0.805087 18 18 18
0.063651 0.870429 0.554397 0.157597 0.571837 -0.805087 93 195 43
0.102566 0.017206 -0.146076 -0.147817 0.961975 0.229683 19 33 18
-0.086737 0.003047 -0.186782 -0.147817 0.961975 0.229683 18 18 18
-0.093858 -0.006053 -0.175072 -0.147817 0.961975 0.229683 18 18 18
0.115614 0.000159 -0.044461 -0.147817 0.961975 0.229683 27 56 18
0.215514 0.061020 -0.284697 -0.172560 0.981918 0.077852 71 138 31
-0.065918 -0.000367 -0.242939 -0.172560 0.981918 0.077852 18 18 18
-0.069057 0.006651 -0.229725 -0.172560 0.981918 0.077852 18 18 18
0.134179 0.033159 -0.222267 -0.172560 0.981918 0.077852 34 69 21
0.134179 0.033159 -0.222267 -0.125826 0.878425 0.461018 34 69 21
-0.069057 0.006651 -0.229725 -0.125826 0.878425 0.461018 18 18 18
-0.079893 -0.004459 -0.209017 -0.125826 0.878425 0.461018 18 18 18
0.132054 0.008557 -0.178467 -0.125826 0.878425 0.461018 32 56 18
0.132054 0.008557 -0.178467 -0.013012 0.956478 -0.291516 32 56 18
-0.079893 -0.004459 -0.209017 -0.013012 0.956478 -0.291516 18 18 18
-0.086737 0.003047 -0.186782 -0.013012 0.956478 -0.291516 18 18 18
0.102566 0.017206 -0.146076 -0.013012 0.956478 -0.291516 19 33 18
2.024858 0.427901 0.652834 0.199193 0.869607 0.451780 136 210 100
1.932487 0.454238 0.635496 0.199193 0.869607 0.451780 96 196 48
1.852887 0.445512 0.694760 0.199193 0.869607 0.451780 100 198 52
1.986810 0.420145 0.677168 0.199193 0.869607 0.451780 139 212 103
1.932487 0.454238 0.635496 0.273873 0.795064 0.541172 96 196 48
1.422676 0.696624 0.543556 0.273873 0.795064 0.541172 93 195 43
1.336414 0.642962 0.659888 0.273873 0.795064 0.541172 93 195 43
1.852887 0.445512 0.694760 0.273873 0.795064 0.541172 100 198 52
1.422676 0.696624 0.543556 0.257514 0.800078 0.541814 93 195 43
1.005081 0.944105 0.372676 0.257514 0.800078 0.541814 93 195 43
0.933976 0.886379 0.495621 0.257514 0.800078 0.541814 93 195 43
1.336414 0.642962 0.659888 0.257514 0.800078 0.541814 93 195 43
1.005081 0.944105 0.372676 -0.349171 0.914279 0.205360 93 195 43
0.606127 0.829268 0.192447 -0.349171 0.914279 0.205360 93 195 43
0.565548 0.788754 0.316981 -0.349171 0.914279 0.205360 93 195 43
0.933976 0.886379 0.495621 -0.349171 0.914279 0.205360 93 195 43
0.606127 0.829268 0.192447 -0.863321 0.504120 0.023215 93 195 43
0.102566 0.017206 -0.146076 -0.863321 0.504120 0.023215 19 33 18
0.115614 0.000159 -0.044461 -0.863321 0.504120 0.023215 26 49 18
0.565548 0.788754 0.316981 -0.863321 0.504120 0.023215 93 195 43
2.032886 0.419586 0.564594 0.461812 0.866421 -0.189850 96 196 47
1.949817 0.444336 0.457939 0.461812 0.866421 -0.189850 93 195 43
1.965054 0.453843 0.555929 0.461812 0.866421 -0.189850 93 195 43
2.042982 0.427681 0.608555 0.461812 0.866421 -0.189850 111 203 67
1.949817 0.444336 0.457939 0.577475 0.791382 -0.200592 93 195 43
1.557793 0.640277 0.119012 0.577475 0.791382 -0.200592 93 195 43
1.537925 0.695226 0.261979 0.577475 0.791382 -0.200592 93 195 43
1.965054 0.453843 0.555929 0.577475 0.791382 -0.200592 93 195 43
1.557793 0.640277 0.119012 0.568362 0.789701 -0.230950 93 195 43
1.177644 0.857359 -0.070273 0.568362 0.789701 -0.230950 93 195 43
1.137605 0.927230 0.066136 0.568362 0.789701 -0.230950 93 195 43
1.537925 0.695226 0.261979 0.568362 0.789701 -0.230950 93 195 43
1.177644 0.857359 -0.070273 0.265913 0.857703 -0.440040 93 195 43
0.780623 0.891949 -0.218354 0.265913 0.857703 -0.440040 93 195 43
0.733464 0.978628 -0.102316 0.265913 0.857703 -0.440040 93 195 43
1.137605 0.927230 0.066136 0.265913 0.857703 -0.440040 93 195 43
0.780623 0.891949 -0.218354 -0.630785 0.477602 -0.611561 93 195 43
0.215514 0.061020 -0.284697 -0.630785 0.477602 -0.611561 71 138 31
0.134179 0.033159 -0.222267 -0.630785 0.477602 -0.611561 34 69 21
0.733464 0.978628 -0.102316 -0.630785 0.477602 -0.611561 93 195 43
2.042982 0.427681 0.608555 0.007019 0.899454 0.436958 111 203 67
1.965054 0.453843 0.555929 0.007019 0.899454 0.436958 93 195 43
1.939171 0.436597 0.591870 0.007019 0.899454 0.436958 93 195 44
2.031862 0.417385 0.629903 0.007019 0.899454 0.436958 119 205 77
1.965054 0.453843 0.555929 0.152281 0.859228 0.488403 93 195 43
1.537925 0.695226 0.261979 0.152281 0.859228 0.488403 93 195 43
1.476299 0.628265 0.401466 0.152281 0.859228 0.488403 82 170 38
1.939171 0.436597 0.591870 0.152281 0.859228 0.488403 93 195 44
1.537925 0.695226 0.261979 0.271246 0.838120 0.473266 93 195 43
1.137605 0.927230 0.066136 0.271246 0.838120 0.473266 93 195 43
1.051737 0.882177 0.209555 0.271246 0.838120 0.473266 82 171 38
1.476299 0.628265 0.401466 0.271246 0.838120 0.473266 82 170 38
1.137605 0.927230 0.066136 -0.320929 0.761569 0.563043 93 195 43
0.733464 0.978628 -0.102316 -0.320929 0.761569 0.563043 93 195 43
0.648370 0.740205 0.040246 -0.320929 0.761569 0.563043 81 170 38
1.051737 0.882177 0.209555 -0.320929 0.761569 0.563043 82 171 38
0.733464 0.978628 -0.102316 -0.820951 0.485349 0.300791 93 195 43
0.134179 0.033159 -0.222267 -0.820951 0.485349 0.300791 34 69 21
0.132054 0.008557 -0.178467 -0.820951 0.485349 0.300791 32 56 18
0.648370 0.740205 0.040246 -0.820951 0.485349 0.300791 81 170 38
2.031862 0.417385 0.629903 0.314497 0.895726 -0.314273 119 205 77
1.939171 0.436597 0.591870 0.314497 0.895726 -0.314273 93 195 44
1.932487 0.454238 0.635496 0.314497 0.895726 -0.314273 96 196 48
2.024858 0.427901 0.652834 0.314497 0.895726 -0.314273 136 210 100
1.939171 0.436597 0.591870 0.454002 0.855569 -0.248766 93 195 44
1.476299 0.628265 0.401466 0.454002 0.855569 -0.248766 82 170 38
1.422676 0.696624 0.543556 0.454002 0.855569 -0.248766 93 195 43
1.932487 0.454238 0.635496 0.454002 0.855569 -0.248766 96 196 48
1.476299 0.628265 0.401466 0.556071 0.814586 -0.165028 82 170 38
1.051737 0.882177 0.209555 0.556071 0.814586 -0.165028 82 171 38
1.005081 0.944105 0.372676 0.556071 0.814586 -0.165028 93 195 43
1.422676 0.696624 0.543556 0.556071 0.814586 -0.165028 93 195 43
1.051737 0.882177 0.209555 -0.088206 0.888499 -0.450321 82 171 38
0.648370 0.740205 0.040246 -0.088206 0.888499 -0.450321 81 170 38
0.606127 0.829268 0.192447 -0.088206 0.888499 -0.450321 93 195 43
1.005081 0.944105 0.372676 -0.088206 0.888499 -0.450321 93 195 43
0.648370 0.740205 0.040246 -0.596191 0.590305 -0.544147 81 170 38
0.132054 0.008557 -0.178467 -0.596191 0.590305 -0.544147 32 56 18
0.102566 0.017206 -0.146076 -0.596191 0.590305 -0.544147 19 33 18
0.606127 0.829268 0.192447 -0.596191 0.590305 -0.544147 93 195 43
0.038999 0.012555 -0.255732 0.081172 0.980904 0.176746 19 32 18
-0.108646 0.017624 -0.172534 0.081172 0.980904 0.176746 18 18 18
-0.102909 0.007119 -0.160392 0.081172 0.980904 0.176746 18 18 18
0.125634 0.005156 -0.210934 0.081172 0.980904 0.176746 30 59 19
-0.006847 0.056102 -0.414269 0.089584 0.975839 0.199279 73 146 34
-0.140268 0.019764 -0.217708 0.089584 0.975839 0.199279 18 25 18
-0.132286 0.025658 -0.208800 0.089584 0.975839 0.199279 18 21 18
-0.003000 0.028089 -0.320181 0.089584 0.975839 0.199279 24 51 18
-0.003000 0.028089 -0.320181 0.309639 0.869524 0.384775 24 51 18
-0.132286 0.025658 -0.208800 0.309639 0.869524 0.384775 18 20 18
-0.121606 0.012317 -0.189093 0.309639 0.869524 0.384775 18 18 18
0.030677 0.005631 -0.294684 0.309639 0.869524 0.384775 24 39 18
0.030677 0.005631 -0.294684 -0.078499 0.979466 -0.185698 24 39 18
-0.121606 0.012317 -0.189093 -0.078499 0.979466 -0.185698 18 18 18
-0.108646 0.017624 -0.172534 -0.078499 0.979466 -0.185698 18 18 18
0.038999 0.012555 -0.255732 -0.078499 0.979466 -0.185698 19 32 18
1.681955 0.286109 -1.158567 0.516910 0.855835 -0.018724 61 251 28
1.619060 0.320244 -1.100632 0.516910 0.855835 -0.018724 59 253 28
1.621194 0.326085 -1.008767 0.516910 0.855835 -0.018724 60 251 28
1.679714 0.283277 -1.115864 0.516910 0.855835 -0.018724 60 251 28
1.619060 0.320244 -1.100632 0.726820 0.685181 -0.047543 59 253 28
1.264327 0.718296 -0.811938 0.726820 0.685181 -0.047543 60 251 28
1.311127 0.675993 -0.681219 0.726820 0.685181 -0.047543 93 195 43
1.621194 0.326085 -1.008767 0.726820 0.685181 -0.047543 60 251 28
1.264327 0.718296 -0.811938 0.567878 0.821688 0.048408 60 251 28
0.910207 0.950311 -0.634328 0.567878 0.821688 0.048408 93 195 43
0.972484 0.902488 -0.514817 0.567878 0.821688 0.048408 163 221 135
1.311127 0.675993 -0.681219 0.567878 0.821688 0.048408 93 195 43
0.910207 0.950311 -0.634328 -0.069737 0.997547 -0.006004 93 195 43
0.563167 0.874223 -0.456788 -0.069737 0.997547 -0.006004 93 195 43
0.650038 0.933818 -0.352743 -0.069737 0.997547 -0.006004 93 195 43
0.972484 0.902488 -0.514817 -0.069737 0.997547 -0.006004 163 221 135
0.563167 0.874223 -0.456788 -0.647611 0.490901 0.582766 93 195 43
0.038999 0.012555 -0.255732 -0.647611 0.490901 0.582766 19 32 18
0.125634 0.005156 -0.210934 -0.647611 0.490901 0.582766 30 56 19
0.650038 0.933818 -0.352743 -0.647611 0.490901 0.582766 93 195 43
1.618708 0.277506 -1.212772 0.209303 0.818691 -0.534730 60 253 28
1.492711 0.315400 -1.212942 0.209303 0.818691 -0.534730 60 253 28
1.575937 0.316831 -1.169305 0.209303 0.818691 -0.534730 59 254 28
1.657957 0.283784 -1.196667 0.209303 0.818691 -0.534730 60 251 28
1.492711 0.315400 -1.212942 0.313748 0.620529 -0.718683 60 253 28
1.010835 0.637133 -1.139449 0.313748 0.620529 -0.718683 60 253 29
1.107997 0.698066 -1.050489 0.313748 0.620529 -0.718683 59 253 28
1.575937 0.316831 -1.169305 0.313748 0.620529 -0.718683 59 254 28
1.010835 0.637133 -1.139449 0.168332 0.728416 -0.664134 60 253 29
0.658135 0.850499 -0.997325 0.168332 0.728416 -0.664134 104 199 58
0.739857 0.921826 -0.895883 0.168332 0.728416 -0.664134 93 195 43
1.107997 0.698066 -1.050489 0.168332 0.728416 -0.664134 59 253 28
0.658135 0.850499 -0.997325 -0.231421 0.831839 -0.504468 104 199 58
0.340668 0.872849 -0.793518 -0.231421 0.831839 -0.504468 93 195 43
0.401335 0.960364 -0.698359 -0.231421 0.831839 -0.504468 93 195 43
0.739857 0.921826 -0.895883 -0.231421 0.831839 -0.504468 93 195 43
0.340668 0.872849 -0.793518 -0.880058 0.447325 0.159367 93 195 43
-0.006847 0.056102 -0.414269 -0.880058 0.447325 0.159367 73 146 34
-0.003000 0.028089 -0.320181 -0.880058 0.447325 0.159367 24 51 18
0.401335 0.960364 -0.698359 -0.880058 0.447325 0.159367 93 195 43
1.657957 0.283784 -1.196667 0.415720 0.891835 0.178348 60 251 28
1.575937 0.316831 -1.169305 0.415720 0.891835 0.178348 59 254 28
1.588940 0.302243 -1.128100 0.415720 0.891835 0.178348 59 254 28
1.667989 0.275169 -1.175545 0.415720 0.891835 0.178348 60 252 28
1.575937 0.316831 -1.169305 0.632128 0.774227 -0.031430 59 254 28
1.107997 0.698066 -1.050489 0.632128 0.774227 -0.031430 59 253 28
1.186480 0.644684 -0.926037 0.632128 0.774227 -0.031430 53 224 25
1.588940 0.302243 -1.128100 0.632128 0.774227 -0.031430 59 254 28
1.107997 0.698066 -1.050489 0.526784 0.849948 -0.009375 59 253 28
0.739857 0.921826 -0.895883 0.526784 0.849948 -0.009375 93 195 43
0.812065 0.884701 -0.758450 0.526784 0.849948 -0.009375 75 153 33
1.186480 0.644684 -0.926037 0.526784 0.849948 -0.009375 53 224 25
0.739857 0.921826 -0.895883 0.228961 0.772672 0.592077 93 195 43
0.401335 0.960364 -0.698359 0.228961 0.772672 0.592077 93 195 43
0.470552 0.750927 -0.568714 0.228961 0.772672 0.592077 84 175 39
0.812065 0.884701 -0.758450 0.228961 0.772672 0.592077 75 153 33
0.401335 0.960364 -0.698359 -0.252224 0.458274 0.852272 93 195 43
-0.003000 0.028089 -0.320181 -0.252224 0.458274 0.852272 24 51 18
0.030677 0.005631 -0.294684 -0.252224 0.458274 0.852272 24 39 18
0.470552 0.750927 -0.568714 -0.252224 0.458274 0.852272 84 175 39
1.667989 0.275169 -1.175545 -0.025520 0.849120 -0.527583 60 252 28
1.588940 0.302243 -1.128100 -0.025520 0.849120 -0.527583 59 254 28
1.619060 0.320244 -1.100632 -0.025520 0.849120 -0.527583 59 253 28
1.681955 0.286109 -1.158567 -0.025520 0.849120 -0.527583 61 251 28
1.588940 0.302243 -1.128100 0.263720 0.705577 -0.657733 59 254 28
1.186480 0.644684 -0.926037 0.263720 0.705577 -0.657733 53 224 25
1.264327 0.718296 -0.811938 0.263720 0.705577 -0.657733 60 251 28
1.619060 0.320244 -1.100632 0.263720 0.705577 -0.657733 59 253 28
1.186480 0.644684 -0.926037 0.211044 0.767962 -0.604727 53 224 25
0.812065 0.884701 -0.758450 0.211044 0.767962 -0.604727 75 153 33
0.910207 0.950311 -0.634328 0.211044 0.767962 -0.604727 93 195 43
1.264327 0.718296 -0.811938 0.211044 0.767962 -0.604727 60 251 28
0.812065 0.884701 -0.758450 -0.430380 0.841777 -0.325860 75 153 33
0.470552 0.750927 -0.568714 -0.430380 0.841777 -0.325860 84 175 39
0.563167 0.874223 -0.456788 -0.430380 0.841777 -0.325860 93 195 43
0.910207 0.950311 -0.634328 -0.430380 0.841777 -0.325860 93 195 43
0.470552 0.750927 -0.568714 -0.839648 0.533626 0.101164 84 175 39
0.030677 0.005631 -0.294684 -0.839648 0.533626 0.101164 24 39 18
0.038999 0.012555 -0.255732 -0.839648 0.533626 0.101164 19 32 18
0.563167 0.874223 -0.456788 -0.839648 0.533626 0.101164 93 195 43
-0.079523 0.024467 -0.280364 0.392176 0.825385 0.406125 55 118 27
-0.099827 0.003353 -0.196785 0.392176 0.825385 0.406125 23 75 18
-0.094687 -0.006326 -0.203139 0.392176 0.825385 0.406125 29 69 18
0.010319 0.008588 -0.313785 0.392176 0.825385 0.406125 81 167 38
-0.235831 0.069945 -0.340129 0.149617 0.947631 0.282152 59 141 30
-0.151674 0.007686 -0.177724 0.149617 0.947631 0.282152 18 23 18
-0.144675 0.012971 -0.197116 0.149617 0.947631 0.282152 18 21 18
-0.150357 0.041096 -0.290629 0.149617 0.947631 0.282152 29 66 20
-0.150357 0.041096 -0.290629 0.389240 0.904122 0.176226 29 66 20
-0.144675 0.012971 -0.197116 0.389240 0.904122 0.176226 18 21 18
-0.118869 0.008067 -0.190725 0.389240 0.904122 0.176226 18 18 18
-0.116459 0.019891 -0.294941 0.389240 0.904122 0.176226 30 60 18
-0.116459 0.019891 -0.294941 -0.023433 0.985173 0.169957 30 60 18
-0.118869 0.008067 -0.190725 -0.023433 0.985173 0.169957 18 19 18
-0.099827 0.003353 -0.196785 -0.023433 0.985173 0.169957 18 18 18
-0.079523 0.024467 -0.280364 -0.023433 0.985173 0.169957 20 36 18
0.087354 0.425807 -2.074255 0.190493 0.923741 -0.332287 93 195 43
0.107260 0.456080 -1.976360 0.190493 0.923741 -0.332287 93 195 43
0.177690 0.462665 -1.920005 0.190493 0.923741 -0.332287 93 195 43
0.139998 0.429629 -2.031122 0.190493 0.923741 -0.332287 94 196 44
0.107260 0.456080 -1.976360 0.397240 0.792553 -0.462667 93 195 43
0.175935 0.702656 -1.510406 0.397240 0.792553 -0.462667 93 195 43
0.292182 0.661728 -1.465312 0.397240 0.792553 -0.462667 93 195 43
0.177690 0.462665 -1.920005 0.397240 0.792553 -0.462667 93 195 43
0.175935 0.702656 -1.510406 0.352274 0.804123 -0.478841 93 195 43
0.119706 0.918620 -1.160797 0.352274 0.804123 -0.478841 93 195 43
0.254369 0.889382 -1.139132 0.352274 0.804123 -0.478841 93 195 43
0.292182 0.661728 -1.465312 0.352274 0.804123 -0.478841 93 195 43
0.119706 0.918620 -1.160797 0.318836 0.944910 -0.074090 93 195 43
0.057997 0.982490 -0.796728 0.318836 0.944910 -0.074090 93 195 43
0.195905 0.921423 -0.797135 0.318836 0.944910 -0.074090 93 195 43
0.254369 0.889382 -1.139132 0.318836 0.944910 -0.074090 93 195 43
0.057997 0.982490 -0.796728 0.269841 0.417146 0.867857 93 195 43
-0.079523 0.024467 -0.280364 0.269841 0.417146 0.867857 20 36 18
0.010319 0.008588 -0.313785 0.269841 0.417146 0.867857 23 49 18
0.195905 0.921423 -0.797135 0.269841 0.417146 0.867857 93 195 43
0.019276 0.420688 -2.047709 -0.352105 0.876078 -0.329406 93 195 43
-0.048540 0.435498 -1.920382 -0.352105 0.876078 -0.329406 93 195 43
0.039741 0.458553 -1.968880 -0.352105 0.876078 -0.329406 93 195 43
0.045571 0.417153 -2.069767 -0.352105 0.876078 -0.329406 93 195 43
-0.048540 0.435498 -1.920382 -0.454215 0.749516 -0.481576 93 195 43
-0.243136 0.599335 -1.482963 -0.454215 0.749516 -0.481576 96 196 48
-0.112621 0.660469 -1.509799 -0.454215 0.749516 -0.481576 93 195 43
0.039741 0.458553 -1.968880 -0.454215 0.749516 -0.481576 93 195 43
-0.243136 0.599335 -1.482963 -0.449726 0.674041 -0.586017 96 196 48
-0.328187 0.816735 -1.164630 -0.449726 0.674041 -0.586017 93 195 43
-0.202203 0.895391 -1.173851 -0.449726 0.674041 -0.586017 93 195 43
-0.112621 0.660469 -1.509799 -0.449726 0.674041 -0.586017 93 195 43
-0.328187 0.816735 -1.164630 -0.568523 0.814609 -0.114863 93 195 43
-0.340291 0.850162 -0.811140 -0.568523 0.814609 -0.114863 93 195 43
-0.243974 0.925368 -0.811027 -0.568523 0.814609 -0.114863 93 195 43
-0.202203 0.895391 -1.173851 -0.568523 0.814609 -0.114863 93 195 43
-0.340291 0.850162 -0.811140 -0.340197 0.450994 0.825149 93 195 43
-0.235831 0.069945 -0.340129 -0.340197 0.450994 0.825149 59 141 30
-0.150357 0.041096 -0.290629 -0.340197 0.450994 0.825149 29 66 20
-0.243974 0.925368 -0.811027 -0.340197 0.450994 0.825149 93 195 43
0.045571 0.417153 -2.069767 0.099761 0.965173 -0.241847 93 195 43
0.039741 0.458553 -1.968880 0.099761 0.965173 -0.241847 93 195 43
0.076739 0.439552 -1.967520 0.099761 0.965173 -0.241847 93 195 43
0.063633 0.432703 -2.062185 0.099761 0.965173 -0.241847 93 195 43
0.039741 0.458553 -1.968880 0.302717 0.901329 -0.309789 93 195 43
-0.112621 0.660469 -1.509799 0.302717 0.901329 -0.309789 93 195 43
0.028220 0.623001 -1.501676 0.302717 0.901329 -0.309789 73 149 34
0.076739 0.439552 -1.967520 0.302717 0.901329 -0.309789 93 195 43
-0.112621 0.660469 -1.509799 0.237400 0.822624 -0.516654 93 195 43
-0.202203 0.895391 -1.173851 0.237400 0.822624 -0.516654 93 195 43
-0.055823 0.868892 -1.151847 0.237400 0.822624 -0.516654 93 195 43
0.028220 0.623001 -1.501676 0.237400 0.822624 -0.516654 73 149 34
-0.202203 0.895391 -1.173851 0.212252 0.976197 -0.044588 93 195 43
-0.243974 0.925368 -0.811027 0.212252 0.976197 -0.044588 93 195 43
-0.074445 0.884758 -0.798474 0.212252 0.976197 -0.044588 69 146 32
-0.055823 0.868892 -1.151847 0.212252 0.976197 -0.044588 93 195 43
-0.243974 0.925368 -0.811027 0.118562 0.504235 0.855389 93 195 43
-0.150357 0.041096 -0.290629 0.118562 0.504235 0.855389 29 66 20
-0.116459 0.019891 -0.294941 0.118562 0.504235 0.855389 30 60 18
-0.074445 0.884758 -0.798474 0.118562 0.504235 0.855389 69 146 32
0.063633 0.432703 -2.062185 -0.227449 0.962693 -0.146591 93 195 43
0.076739 0.439552 -1.967520 -0.227449 0.962693 -0.146591 93 195 43
0.107260 0.456080 -1.976360 -0.227449 0.962693 -0.146591 93 195 43
0.087354 0.425807 -2.074255 -0.227449 0.962693 -0.146591 93 195 43
0.076739 0.439552 -1.967520 -0.470137 0.805196 -0.361428 93 195 43
0.028220 0.623001 -1.501676 -0.470137 0.805196 -0.361428 73 149 34
0.175935 0.702656 -1.510406 -0.470137 0.805196 -0.361428 93 195 43
0.107260 0.456080 -1.976360 -0.470137 0.805196 -0.361428 93 195 43
0.028220 0.623001 -1.501676 -0.333017 0.754767 -0.565178 73 149 34
-0.055823 0.868892 -1.151847 -0.333017 0.754767 -0.565178 93 195 43
0.119706 0.918620 -1.160797 -0.333017 0.754767 -0.565178 93 195 43
0.175935 0.702656 -1.510406 -0.333017 0.754767 -0.565178 93 195 43
-0.055823 0.868892 -1.151847 -0.429957 0.890778 -0.147142 93 195 43
-0.074445 0.884758 -0.798474 -0.429957 0.890778 -0.147142 69 146 32
0.057997 0.982490 -0.796728 -0.429957 0.890778 -0.147142 93 195 43
0.119706 0.918620 -1.160797 -0.429957 0.890778 -0.147142 93 195 43
-0.074445 0.884758 -0.798474 -0.367465 0.481408 0.795748 69 146 32
-0.116459 0.019891 -0.294941 -0.367465 0.481408 0.795748 30 60 18
-0.079523 0.024467 -0.280364 -0.367465 0.481408 0.795748 20 36 18
0.057997 0.982490 -0.796728 -0.367465 0.481408 0.795748 93 195 43
-0.175323 0.012391 -0.186570 0.119767 0.979663 -0.160986 18 25 18
0.001181 0.010530 -0.109278 0.119767 0.979663 -0.160986 18 18 18
0.011042 0.000970 -0.117425 0.119767 0.979663 -0.160986 18 18 18
-0.163824 0.002779 -0.279203 0.119767 0.979663 -0.160986 24 65 18
-0.302449 0.065639 -0.077576 0.182785 0.969444 -0.163606 51 218 25
-0.028272 0.006060 -0.060772 0.182785 0.969444 -0.163606 55 171 37
-0.023696 0.013781 -0.073428 0.182785 0.969444 -0.163606 58 171 41
-0.219270 0.031628 -0.122657 0.182785 0.969444 -0.163606 43 185 20
-0.219270 0.031628 -0.122657 0.186015 0.872601 -0.451626 33 146 18
-0.023696 0.013781 -0.073428 0.186015 0.872601 -0.451626 50 144 35
-0.008649 0.004081 -0.089131 0.186015 0.872601 -0.451626 58 152 42
-0.206738 0.007823 -0.160331 0.186015 0.872601 -0.451626 31 133 18
-0.206738 0.007823 -0.160331 -0.057481 0.981610 0.182036 18 25 18
-0.008649 0.004081 -0.089131 -0.057481 0.981610 0.182036 18 27 18
0.001181 0.010530 -0.109278 -0.057481 0.981610 0.182036 18 26 18
-0.175323 0.012391 -0.186570 -0.057481 0.981610 0.182036 18 25 18
-1.583419 0.147881 -1.119902 -0.175760 0.795478 -0.579934 93 195 43
-1.505014 0.183935 -1.088814 -0.175760 0.795478 -0.579934 93 195 43
-1.419377 0.179407 -1.126376 -0.175760 0.795478 -0.579934 93 195 43
-1.542993 0.142729 -1.133825 -0.175760 0.795478 -0.579934 93 195 43
-1.505014 0.183935 -1.088814 -0.221678 0.704886 -0.673791 93 195 43
-1.080055 0.472781 -0.931099 -0.221678 0.704886 -0.673791 93 195 43
-0.972611 0.422298 -1.014611 -0.221678 0.704886 -0.673791 93 195 43
-1.419377 0.179407 -1.126376 -0.221678 0.704886 -0.673791 93 195 43
-1.080055 0.472781 -0.931099 -0.319285 0.609979 -0.725247 93 195 43
-0.825929 0.773732 -0.783609 -0.319285 0.609979 -0.725247 93 195 43
-0.735186 0.713980 -0.880062 -0.319285 0.609979 -0.725247 93 195 43
-0.972611 0.422298 -1.014611 -0.319285 0.609979 -0.725247 93 195 43
-0.825929 0.773732 -0.783609 0.089087 0.853129 -0.514038 93 195 43
-0.545949 0.873947 -0.581774 0.089087 0.853129 -0.514038 93 195 43
-0.476483 0.799591 -0.680130 0.089087 0.853129 -0.514038 93 195 43
-0.735186 0.713980 -0.880062 0.089087 0.853129 -0.514038 93 195 43
-0.545949 0.873947 -0.581774 0.877559 0.446029 0.175921 93 195 43
-0.175323 0.012391 -0.186570 0.877559 0.446029 0.175921 18 25 18
-0.163824 0.002779 -0.279203 0.877559 0.446029 0.175921 24 64 18
-0.476483 0.799591 -0.680130 0.877559 0.446029 0.175921 93 195 43
-1.608214 0.146880 -1.040035 -0.571315 0.820656 -0.011101 93 195 43
-1.556581 0.188140 -0.929069 -0.571315 0.820656 -0.011101 93 195 43
-1.551112 0.186870 -1.022523 -0.571315 0.820656 -0.011101 93 195 43
-1.609073 0.149514 -1.083011 -0.571315 0.820656 -0.011101 93 195 43
-1.556581 0.188140 -0.929069 -0.678964 0.733993 -0.016186 93 195 43
-1.285971 0.442244 -0.563981 -0.678964 0.733993 -0.016186 93 195 43
-1.243189 0.483165 -0.696504 -0.678964 0.733993 -0.016186 93 195 43
-1.551112 0.186870 -1.022523 -0.678964 0.733993 -0.016186 93 195 43
-1.285971 0.442244 -0.563981 -0.760264 0.646931 -0.058988 93 195 43
-1.062709 0.722369 -0.399207 -0.760264 0.646931 -0.058988 93 195 43
-1.003437 0.778029 -0.522802 -0.760264 0.646931 -0.058988 93 195 43
-1.243189 0.483165 -0.696504 -0.760264 0.646931 -0.058988 93 195 43
-1.062709 0.722369 -0.399207 -0.422654 0.864323 0.272595 93 195 43
-0.767647 0.798300 -0.221487 -0.422654 0.864323 0.272595 45 195 22
-0.707689 0.873192 -0.326969 -0.422654 0.864323 0.272595 38 162 18
-1.003437 0.778029 -0.522802 -0.422654 0.864323 0.272595 93 195 43
-0.767647 0.798300 -0.221487 0.562424 0.488299 0.667266 45 195 22
-0.302449 0.065639 -0.077576 0.562424 0.488299 0.667266 51 218 25
-0.219270 0.031628 -0.122657 0.562424 0.488299 0.667266 43 185 20
-0.707689 0.873192 -0.326969 0.562424 0.488299 0.667266 38 162 19
-1.609073 0.149514 -1.083011 0.004812 0.848675 -0.528892 93 195 43
-1.551112 0.186870 -1.022523 0.004812 0.848675 -0.528892 93 195 43
-1.518559 0.170569 -1.048403 0.004812 0.848675 -0.528892 93 195 43
-1.593614 0.139318 -1.099212 0.004812 0.848675 -0.528892 93 195 43
-1.551112 0.186870 -1.022523 -0.121192 0.787304 -0.604537 93 195 43
-1.243189 0.483165 -0.696504 -0.121192 0.787304 -0.604537 93 195 43
-1.152282 0.415636 -0.804547 -0.121192 0.787304 -0.604537 83 169 38
-1.518559 0.170569 -1.048403 -0.121192 0.787304 -0.604537 93 195 43
-1.243189 0.483165 -0.696504 -0.365641 0.660231 -0.656050 93 195 43
-1.003437 0.778029 -0.522802 -0.365641 0.660231 -0.656050 93 195 43
-0.901945 0.726367 -0.641940 -0.365641 0.660231 -0.656050 78 160 36
-1.152282 0.415636 -0.804547 -0.365641 0.660231 -0.656050 83 169 38
-1.003437 0.778029 -0.522802 0.046866 0.893985 -0.445638 93 195 43
-0.707689 0.873192 -0.326969 0.046866 0.893985 -0.445638 38 162 18
-0.610965 0.796739 -0.443994 0.046866 0.893985 -0.445638 56 162 25
-0.901945 0.726367 -0.641940 0.046866 0.893985 -0.445638 78 160 36
-0.707689 0.873192 -0.326969 0.819071 0.520574 0.241091 38 162 18
-0.219270 0.031628 -0.122657 0.819071 0.520574 0.241091 18 42 18
-0.206738 0.007823 -0.160331 0.819071 0.520574 0.241091 18 29 18
-0.610965 0.796739 -0.443994 0.819071 0.520574 0.241091 56 162 25
-1.593614 0.139318 -1.099212 -0.458310 0.878154 0.137105 93 195 43
-1.518559 0.170569 -1.048403 -0.458310 0.878154 0.137105 93 195 43
-1.505014 0.183935 -1.088814 -0.458310 0.878154 0.137105 93 195 43
-1.583419 0.147881 -1.119902 -0.458310 0.878154 0.137105 93 195 43
-1.518559 0.170569 -1.048403 -0.575645 0.816231 0.048994 93 195 43
-1.152282 0.415636 -0.804547 -0.575645 0.816231 0.048994 83 169 38
-1.080055 0.472781 -0.931099 -0.575645 0.816231 0.048994 93 195 43
-1.505014 0.183935 -1.088814 -0.575645 0.816231 0.048994 93 195 43
-1.152282 0.415636 -0.804547 -0.727661 0.671378 -0.140574 83 169 38
-0.901945 0.726367 -0.641940 -0.727661 0.671378 -0.140574 78 160 36
-0.825929 0.773732 -0.783609 -0.727661 0.671378 -0.140574 93 195 43
-1.080055 0.472781 -0.931099 -0.727661 0.671378 -0.140574 93 195 43
-0.901945 0.726367 -0.641940 -0.403533 0.893975 0.194859 78 160 36
-0.610965 0.796739 -0.443994 -0.403533 0.893975 0.194859 56 162 25
-0.545949 0.873947 -0.581774 -0.403533 0.893975 0.194859 93 195 43
-0.825929 0.773732 -0.783609 -0.403533 0.893975 0.194859 93 195 43
-0.610965 0.796739 -0.443994 0.590291 0.528188 0.610388 56 162 25
-0.206738 0.007823 -0.160331 0.590291 0.528188 0.610388 18 25 18
-0.175323 0.012391 -0.186570 0.590291 0.528188 0.610388 18 25 18
-0.545949 0.873947 -0.581774 0.590291 0.528188 0.610388 93 195 43
4 0 1 2 3
4 4 5 6 7
4 8 9 10 11
4 12 13 14 15
4 16 17 18 19
4 20 21 22 23
4 24 25 26 27
4 28 29 30 31
4 32 33 34 35
4 36 37 38 39
4 40 41 42 43
4 44 45 46 47
4 48 49 50 51
4 52 53 54 55
4 56 57 58 59
4 60 61 62 63
4 64 65 66 67
4 68 69 70 71
4 72 73 74 75
4 76 77 78 79
4 80 81 82 83
4 84 85 86 87
4 88 89 90 91
4 92 93 94 95
4 96 97 98 99
4 100 101 102 103
4 104 105 106 107
4 108 109 110 111
4 112 113 114 115
4 116 117 118 119
4 120 121 122 123
4 124 125 126 127
4 128 129 130 131
4 132 133 134 135
4 136 137 138 139
4 140 141 142 143
4 144 145 146 147
4 148 149 150 151
4 152 153 154 155
4 156 157 158 159
4 160 161 162 163
4 164 165 166 167
4 168 169 170 171
4 172 173 174 175
4 176 177 178 179
4 180 181 182 183
4 184 185 186 187
4 188 189 190 191
4 192 193 194 195
4 196 197 198 199
4 200 201 202 203
4 204 205 206 207
4 208 209 210 211
4 212 213 214 215
4 216 217 218 219
4 220 221 222 223
4 224 225 226 227
4 228 229 230 231
4 232 233 234 235
4 236 237 238 239
4 240 241 242 243
4 244 245 246 247
4 248 249 250 251
4 252 253 254 255
4 256 257 258 259
4 260 261 262 263
4 264 265 266 267
4 268 269 270 271
4 272 273 274 275
4 276 277 278 279
4 280 281 282 283
4 284 285 286 287
4 288 289 290 291
4 292 293 294 295
4 296 297 298 299
4 300 301 302 303
4 304 305 306 307
4 308 309 310 311
4 312 313 314 315
4 316 317 318 319
4 320 321 322 323
4 324 325 326 327
4 328 329 330 331
4 332 333 334 335
4 336 337 338 339
4 340 341 342 343
4 344 345 346 347
4 348 349 350 351
4 352 353 354 355
4 356 357 358 359
4 360 361 362 363
4 364 365 366 367
4 368 369 370 371
4 372 373 374 375
4 376 377 378 379
4 380 381 382 383
4 384 385 386 387
4 388 389 390 391
4 392 393 394 395
4 396 397 398 399
4 400 401 402 403
4 404 405 406 407
4 408 409 410 411
4 412 413 414 415
4 416 417 418 419
4 420 421 422 423
4 424 425 426 427
4 428 429 430 431
4 432 433 434 435
4 436 437 438 439
4 440 441 442 443
4 444 445 446 447
4 448 449 450 451
4 452 453 454 455
4 456 457 458 459
4 460 461 462 463
4 464 465 466 467
4 468 469 470 471
4 472 473 474 475
4 476 477 478 479
4 480 481 482 483
4 484 485 486 487
4 488 489 490 491
4 492 493 494 495
4 496 497 498 499
4 500 501 502 503
4 504 505 506 507
4 508 509 510 511
4 512 513 514 515
4 516 517 518 519
4 520 521 522 523
4 524 525 526 527
4 528 529 530 531
4 532 533 534 535
4 536 537 538 539
4 540 541 542 543
4 544 545 546 547
4 548 549 550 551
4 552 553 554 555
4 556 557 558 559
4 560 561 562 563
4 564 565 566 567
4 568 569 570 571
4 572 573 574 575
4 576 577 578 579
4 580 581 582 583
4 584 585 586 587
4 588 589 590 591
4 592 593 594 595
4 596 597 598 599
4 600 601 602 603
4 604 605 606 607
4 608 609 610 611
4 612 613 614 615
4 616 617 618 619
4 620 621 622 623
4 624 625 626 627
4 628 629 630 631
4 632 633 634 635
4 636 637 638 639
4 640 641 642 643
4 644 645 646 647
4 648 649 650 651
4 652 653 654 655
4 656 657 658 659
4 660 661 662 663
4 664 665 666 667
4 668 669 670 671
