ply
format ascii 1.0
comment Created by Blender 2.72 (sub 0) - www.blender.org, source file: 'tree.blend'
element vertex 265
property float x
property float y
property float z
property float nx
property float ny
property float nz
property uchar red
property uchar green
property uchar blue
element face 83
property list uchar uint vertex_indices
end_header
0.800890 2.475691 -1.070885 0.184149 -0.828039 0.529567 67 183 61
1.531506 3.033396 -0.452910 0.184149 -0.828039 0.529567 15 163 8
0.559243 3.001770 -0.164270 0.184149 -0.828039 0.529567 15 163 8
1.531506 3.033396 -0.452910 0.640878 -0.764660 -0.067609 15 163 8
0.800890 2.475691 -1.070885 0.640878 -0.764660 -0.067609 15 163 8
1.462360 3.073542 -1.562413 0.640878 -0.764660 -0.067609 15 163 8
0.800890 2.475691 -1.070885 -0.474816 -0.810240 0.343600 21 165 14
0.559243 3.001770 -0.164270 -0.474816 -0.810240 0.343600 15 163 8
-0.150632 3.011898 -1.121355 -0.474816 -0.810240 0.343600 15 163 8
0.800890 2.475691 -1.070885 -0.454688 -0.835821 -0.307672 21 165 14
-0.150632 3.011898 -1.121355 -0.454688 -0.835821 -0.307672 15 163 8
0.461724 2.984809 -1.952726 -0.454688 -0.835821 -0.307672 15 163 8
0.800890 2.475691 -1.070885 0.287146 -0.777593 -0.559372 15 163 8
0.461724 2.984809 -1.952726 0.287146 -0.777593 -0.559372 15 163 8
1.462360 3.073542 -1.562413 0.287146 -0.777593 -0.559372 15 163 8
1.531506 3.033396 -0.452910 0.969419 -0.235530 -0.068939 15 163 8
1.462360 3.073542 -1.562413 0.969419 -0.235530 -0.068939 15 163 8
1.705641 3.902525 -0.973619 0.969419 -0.235530 -0.068939 15 163 8
0.559243 3.001770 -0.164270 0.286139 -0.091695 0.953791 15 163 8
1.531506 3.033396 -0.452910 0.286139 -0.091695 0.953791 15 163 8
1.027139 3.854692 -0.222642 0.286139 -0.091695 0.953791 15 163 8
-0.150632 3.011898 -1.121355 -0.789228 -0.191906 0.583344 21 165 14
0.559243 3.001770 -0.164270 -0.789228 -0.191906 0.583344 15 163 8
0.056658 3.915362 -0.543687 -0.789228 -0.191906 0.583344 15 163 8
0.461724 2.984809 -1.952726 -0.803652 -0.083442 -0.589220 15 163 8
-0.150632 3.011898 -1.121355 -0.803652 -0.083442 -0.589220 15 163 8
0.080312 3.966571 -1.571539 -0.803652 -0.083442 -0.589220 15 163 8
1.462360 3.073542 -1.562413 0.371376 -0.218061 -0.902513 15 163 8
0.461724 2.984809 -1.952726 0.371376 -0.218061 -0.902513 15 163 8
1.064161 3.907041 -1.927654 0.371376 -0.218061 -0.902513 15 163 8
1.531506 3.033396 -0.452910 0.710086 0.251702 0.657589 15 163 8
1.705641 3.902525 -0.973619 0.710086 0.251702 0.657589 15 163 8
1.027139 3.854692 -0.222642 0.710086 0.251702 0.657589 18 165 11
0.559243 3.001770 -0.164270 -0.293371 0.224533 0.929257 15 163 8
1.027139 3.854692 -0.222642 -0.293371 0.224533 0.929257 15 163 8
0.056658 3.915362 -0.543687 -0.293371 0.224533 0.929257 15 163 8
-0.150632 3.011898 -1.121355 -0.973072 0.230244 -0.010922 255 255 255
0.056658 3.915362 -0.543687 -0.973072 0.230244 -0.010922 255 255 255
0.080312 3.966571 -1.571539 -0.973072 0.230244 -0.010922 255 255 255
0.461724 2.984809 -1.952726 -0.318484 0.233025 -0.918840 15 163 8
0.080312 3.966571 -1.571539 -0.318484 0.233025 -0.918840 15 163 8
1.064161 3.907041 -1.927654 -0.318484 0.233025 -0.918840 15 163 8
1.462360 3.073542 -1.562413 0.820720 0.150588 -0.551127 15 163 8
1.064161 3.907041 -1.927654 0.820720 0.150588 -0.551127 15 163 8
1.705641 3.902525 -0.973619 0.820720 0.150588 -0.551127 15 163 8
1.027139 3.854692 -0.222642 0.435023 0.783920 0.442971 22 166 15
1.705641 3.902525 -0.973619 0.435023 0.783920 0.442971 15 163 8
0.795254 4.456489 -1.059909 0.435023 0.783920 0.442971 136 209 132
0.056658 3.915362 -0.543687 -0.150956 0.782418 0.604181 255 255 255
1.027139 3.854692 -0.222642 -0.150956 0.782418 0.604181 255 255 255
0.795254 4.456489 -1.059909 -0.150956 0.782418 0.604181 255 255 255
0.080312 3.966571 -1.571539 -0.578288 0.815375 0.027315 255 255 255
0.056658 3.915362 -0.543687 -0.578288 0.815375 0.027315 255 255 255
0.795254 4.456489 -1.059909 -0.578288 0.815375 0.027315 255 255 255
1.064161 3.907041 -1.927654 -0.154356 0.812429 -0.562257 15 163 8
0.080312 3.966571 -1.571539 -0.154356 0.812429 -0.562257 15 163 8
0.795254 4.456489 -1.059909 -0.154356 0.812429 -0.562257 15 163 8
1.705641 3.902525 -0.973619 0.512091 0.788519 -0.340590 15 163 8
1.064161 3.907041 -1.927654 0.512091 0.788519 -0.340590 15 163 8
0.795254 4.456489 -1.059909 0.512091 0.788519 -0.340590 15 163 8
-0.383606 2.630475 -0.828946 -0.456602 -0.764599 -0.454866 15 163 8
-1.788185 3.536057 -0.941230 -0.456602 -0.764599 -0.454866 15 163 8
-0.470236 3.472805 -2.157887 -0.456602 -0.764599 -0.454866 15 163 8
-1.788185 3.536057 -0.941230 -0.538334 -0.803431 0.254354 15 163 8
-0.383606 2.630475 -0.828946 -0.538334 -0.803431 0.254354 15 163 8
-1.228524 3.616349 0.496896 -0.538334 -0.803431 0.254354 15 163 8
-0.383606 2.630475 -0.828946 0.271206 -0.804880 -0.527841 15 163 8
-0.470236 3.472805 -2.157887 0.271206 -0.804880 -0.527841 23 166 17
0.824349 3.493061 -1.523611 0.271206 -0.804880 -0.527841 15 163 8
-0.383606 2.630475 -0.828946 0.617394 -0.779531 0.105622 15 163 8
0.824349 3.493061 -1.523611 0.617394 -0.779531 0.105622 15 163 8
0.464049 3.438884 0.182612 0.617394 -0.779531 0.105622 15 163 8
-0.383606 2.630475 -0.828946 0.029877 -0.792896 0.608624 15 163 8
0.464049 3.438884 0.182612 0.029877 -0.792896 0.608624 15 163 8
-1.228524 3.616349 0.496896 0.029877 -0.792896 0.608624 15 163 8
-1.788185 3.536057 -0.941230 -0.915478 -0.167943 0.365644 15 163 8
-1.228524 3.616349 0.496896 -0.915478 -0.167943 0.365644 15 163 8
-1.685104 4.934805 -0.040687 -0.915478 -0.167943 0.365644 15 163 8
-0.470236 3.472805 -2.157887 -0.646251 -0.341834 -0.682282 15 163 8
-1.788185 3.536057 -0.941230 -0.646251 -0.341834 -0.682282 15 163 8
-1.457095 4.839139 -1.907699 -0.646251 -0.341834 -0.682282 15 163 8
0.824349 3.493061 -1.523611 0.435068 -0.179875 -0.882248 15 163 8
-0.470236 3.472805 -2.157887 0.435068 -0.179875 -0.882248 23 166 17
0.295787 4.960479 -2.083446 0.435068 -0.179875 -0.882248 15 163 8
0.464049 3.438884 0.182612 0.946933 -0.257955 0.191772 255 255 255
0.824349 3.493061 -1.523611 0.946933 -0.257955 0.191772 255 255 255
1.041048 5.062898 -0.482020 0.946933 -0.257955 0.191772 255 255 255
-1.228524 3.616349 0.496896 0.159642 -0.192206 0.968283 15 163 8
0.464049 3.438884 0.182612 0.159642 -0.192206 0.968283 15 163 8
-0.253728 4.943836 0.599688 0.159642 -0.192206 0.968283 255 255 255
-1.788185 3.536057 -0.941230 -0.979751 0.154328 -0.127560 15 163 8
-1.685104 4.934805 -0.040687 -0.979751 0.154328 -0.127560 15 163 8
-1.457095 4.839139 -1.907699 -0.979751 0.154328 -0.127560 15 163 8
-0.470236 3.472805 -2.157887 -0.106360 0.104247 -0.988848 15 163 8
-1.457095 4.839139 -1.907699 -0.106360 0.104247 -0.988848 15 163 8
0.295787 4.960479 -2.083446 -0.106360 0.104247 -0.988848 15 163 8
0.824349 3.493061 -1.523611 0.891186 0.158902 -0.424897 15 163 8
0.295787 4.960479 -2.083446 0.891186 0.158902 -0.424897 15 163 8
1.041048 5.062898 -0.482020 0.891186 0.158902 -0.424897 77 187 71
0.464049 3.438884 0.182612 0.633727 0.089305 0.768384 255 255 255
1.041048 5.062898 -0.482020 0.633727 0.089305 0.768384 255 255 255
-0.253728 4.943836 0.599688 0.633727 0.089305 0.768384 255 255 255
-1.228524 3.616349 0.496896 -0.399155 0.224264 0.889034 15 163 8
-0.253728 4.943836 0.599688 -0.399155 0.224264 0.889034 15 163 8
-1.685104 4.934805 -0.040687 -0.399155 0.224264 0.889034 15 163 8
-1.457095 4.839139 -1.907699 -0.612578 0.782017 -0.114882 15 163 8
-1.685104 4.934805 -0.040687 -0.612578 0.782017 -0.114882 15 163 8
-0.394879 5.832905 -0.806994 -0.612578 0.782017 -0.114882 15 163 8
0.295787 4.960479 -2.083446 -0.115065 0.790003 -0.602209 15 163 8
-1.457095 4.839139 -1.907699 -0.115065 0.790003 -0.602209 15 163 8
-0.394879 5.832905 -0.806994 -0.115065 0.790003 -0.602209 15 163 8
1.041048 5.062898 -0.482020 0.502310 0.816037 -0.285951 159 219 157
0.295787 4.960479 -2.083446 0.502310 0.816037 -0.285951 15 163 8
-0.394879 5.832905 -0.806994 0.502310 0.816037 -0.285951 104 197 101
-0.253728 4.943836 0.599688 0.327211 0.813266 0.481177 255 255 255
1.041048 5.062898 -0.482020 0.327211 0.813266 0.481177 255 255 255
-0.394879 5.832905 -0.806994 0.327211 0.813266 0.481177 255 255 255
-1.685104 4.934805 -0.040687 -0.244654 0.808352 0.535454 15 163 8
-0.253728 4.943836 0.599688 -0.244654 0.808352 0.535454 15 163 8
-0.394879 5.832905 -0.806994 -0.244654 0.808352 0.535454 21 165 15
0.785483 2.847487 0.448996 0.184294 -0.823375 0.536740 15 163 8
2.507516 4.162133 1.874428 0.184294 -0.823375 0.536740 15 163 8
0.202573 4.098881 2.568816 0.184294 -0.823375 0.536740 15 163 8
2.507516 4.162133 1.874428 0.635498 -0.769949 -0.057624 15 163 8
0.785483 2.847487 0.448996 0.635498 -0.769949 -0.057624 15 163 8
2.369223 4.242424 -0.723539 0.635498 -0.769949 -0.057624 16 163 9
0.785483 2.847487 0.448996 -0.477322 -0.807886 0.345665 15 163 8
0.202573 4.098881 2.568816 -0.477322 -0.807886 0.345665 15 163 8
-1.439932 4.119136 0.348057 -0.477322 -0.807886 0.345665 15 163 8
0.785483 2.847487 0.448996 -0.460011 -0.830055 -0.315275 15 163 8
-1.439932 4.119136 0.348057 -0.460011 -0.830055 -0.315275 15 163 8
0.007536 4.064960 -1.621274 -0.460011 -0.830055 -0.315275 255 255 255
0.785483 2.847487 0.448996 0.272233 -0.781249 -0.561729 15 163 8
0.007536 4.064960 -1.621274 0.272233 -0.781249 -0.561729 155 217 152
2.369223 4.242424 -0.723539 0.272233 -0.781249 -0.561729 16 163 9
2.507516 4.162133 1.874428 0.971792 -0.228396 -0.058788 15 163 8
2.369223 4.242424 -0.723539 0.971792 -0.228396 -0.058788 15 163 8
2.917354 6.222763 0.643529 0.971792 -0.228396 -0.058788 15 163 8
0.202573 4.098881 2.568816 0.289488 -0.107254 0.951154 15 163 8
2.507516 4.162133 1.874428 0.289488 -0.107254 0.951154 15 163 8
1.337596 6.127098 2.452073 0.289488 -0.107254 0.951154 15 163 8
-1.439932 4.119136 0.348057 -0.789981 -0.191263 0.582536 29 168 23
0.202573 4.098881 2.568816 -0.789981 -0.191263 0.582536 23 166 16
-0.963783 6.248437 1.692875 -0.789981 -0.191263 0.582536 18 164 11
0.007536 4.064960 -1.621274 -0.803130 -0.098572 -0.587593 255 255 255
-1.439932 4.119136 0.348057 -0.803130 -0.098572 -0.587593 29 168 23
-0.916476 6.350856 -0.741793 -0.803130 -0.098572 -0.587593 15 163 8
2.369223 4.242424 -0.723539 0.361110 -0.212989 -0.907874 16 163 10
0.007536 4.064960 -1.621274 0.361110 -0.212989 -0.907874 15 163 8
1.411640 6.231795 -1.571131 0.361110 -0.212989 -0.907874 54 178 48
2.507516 4.162133 1.874428 0.724468 0.241553 0.645599 15 163 8
2.917354 6.222763 0.643529 0.724468 0.241553 0.645599 17 164 10
1.337596 6.127098 2.452073 0.724468 0.241553 0.645599 15 163 8
0.202573 4.098881 2.568816 -0.295271 0.218771 0.930029 15 163 8
1.337596 6.127098 2.452073 -0.295271 0.218771 0.930029 15 163 8
-0.963783 6.248437 1.692875 -0.295271 0.218771 0.930029 15 163 8
-1.439932 4.119136 0.348057 -0.974557 0.223938 -0.009516 29 168 23
-0.963783 6.248437 1.692875 -0.974557 0.223938 -0.009516 18 164 11
-0.916476 6.350856 -0.741793 -0.974557 0.223938 -0.009516 15 163 8
0.007536 4.064960 -1.621274 -0.316558 0.226445 -0.921148 135 209 132
-0.916476 6.350856 -0.741793 -0.316558 0.226445 -0.921148 15 163 8
1.411640 6.231795 -1.571131 -0.316558 0.226445 -0.921148 16 163 9
2.369223 4.242424 -0.723539 0.817029 0.156879 -0.554845 15 163 8
1.411640 6.231795 -1.571131 0.817029 0.156879 -0.554845 54 178 48
2.917354 6.222763 0.643529 0.817029 0.156879 -0.554845 15 163 8
1.337596 6.127098 2.452073 0.444640 0.785769 0.429956 16 163 9
2.917354 6.222763 0.643529 0.444640 0.785769 0.429956 22 165 15
0.774209 7.529928 0.470949 0.444640 0.785769 0.429956 15 163 8
-0.963783 6.248437 1.692875 -0.156581 0.784502 0.600032 18 164 11
1.337596 6.127098 2.452073 -0.156581 0.784502 0.600032 15 163 8
0.774209 7.529928 0.470949 -0.156581 0.784502 0.600032 15 163 8
-0.916476 6.350856 -0.741793 -0.582850 0.812259 0.022844 15 163 8
-0.963783 6.248437 1.692875 -0.582850 0.812259 0.022844 18 164 11
0.774209 7.529928 0.470949 -0.582850 0.812259 0.022844 15 163 8
1.411640 6.231795 -1.571131 -0.159718 0.809756 -0.564611 16 163 9
-0.916476 6.350856 -0.741793 -0.159718 0.809756 -0.564611 15 163 8
0.774209 7.529928 0.470949 -0.159718 0.809756 -0.564611 15 163 8
2.917354 6.222763 0.643529 0.509114 0.789436 -0.342919 15 163 8
1.411640 6.231795 -1.571131 0.509114 0.789436 -0.342919 54 178 48
0.774209 7.529928 0.470949 0.509114 0.789436 -0.342919 15 163 8
-0.175199 0.006822 0.241141 -0.950980 0.018228 0.308713 137 88 18
-0.135378 2.293631 0.229084 -0.950980 0.018228 0.308713 137 88 18
-0.237889 2.302156 -0.087502 -0.950980 0.018228 0.308713 137 88 18
-0.283478 0.006822 -0.092108 -0.950980 0.018228 0.308713 140 88 18
-0.283478 0.006822 -0.092108 0.000000 -1.000000 -0.000000 209 174 118
0.175199 0.006822 0.241141 0.000000 -1.000000 -0.000000 205 181 152
-0.175199 0.006822 0.241141 0.000000 -1.000000 -0.000000 208 181 151
0.000000 0.006822 -0.298066 0.000000 -1.000000 -0.000000 205 169 115
0.283478 0.006822 -0.092107 0.000000 -1.000000 -0.000000 203 169 121
-0.283478 0.006822 -0.092108 -0.588029 0.013246 -0.808732 165 112 18
-0.237889 2.302156 -0.087502 -0.588029 0.013246 -0.808732 128 80 18
0.030489 2.279838 -0.283162 -0.588029 0.013246 -0.808732 151 95 18
0.000000 0.006822 -0.298066 -0.588029 0.013246 -0.808732 173 114 20
0.175199 0.006822 0.241141 0.000214 0.005301 0.999986 144 94 18
0.196355 2.266046 0.229084 0.000214 0.005301 0.999986 137 88 18
-0.135378 2.293631 0.229084 0.000214 0.005301 0.999986 137 88 18
-0.175199 0.006822 0.241141 0.000214 0.005301 0.999986 144 94 18
0.283478 0.006822 -0.092107 0.951156 -0.007198 0.308626 173 116 20
0.298866 2.257521 -0.087502 0.951156 -0.007198 0.308626 119 78 18
0.196355 2.266046 0.229084 0.951156 -0.007198 0.308626 114 73 18
0.175199 0.006822 0.241141 0.951156 -0.007198 0.308626 168 112 19
0.000000 0.006822 -0.298066 0.588363 -0.002480 -0.808593 194 131 27
0.030489 2.279838 -0.283162 0.588363 -0.002480 -0.808593 157 106 19
0.298866 2.257521 -0.087502 0.588363 -0.002480 -0.808593 134 91 18
0.283478 0.006822 -0.092107 0.588363 -0.002480 -0.808593 192 131 27
0.298866 2.257521 -0.087502 0.570513 -0.174768 -0.802478 134 91 18
0.030489 2.279838 -0.283162 0.570513 -0.174768 -0.802478 157 106 19
0.879239 3.396305 0.077098 0.570513 -0.174768 -0.802478 38 22 18
1.012145 3.385252 0.173993 0.570513 -0.174768 -0.802478 55 38 18
0.196355 2.266046 0.229084 0.784561 -0.558621 0.269084 114 73 18
0.298866 2.257521 -0.087502 0.784561 -0.558621 0.269084 119 78 18
1.012145 3.385252 0.173993 0.784561 -0.558621 0.269084 51 34 18
0.961379 3.389474 0.330771 0.784561 -0.558621 0.269084 54 35 18
-0.135378 2.293631 0.229084 -0.007097 -0.085350 0.996326 137 88 18
0.196355 2.266046 0.229084 -0.007097 -0.085350 0.996326 137 88 18
0.961379 3.389474 0.330771 -0.007097 -0.085350 0.996326 53 35 18
0.797099 3.403135 0.330771 -0.007097 -0.085350 0.996326 27 18 18
-0.237889 2.302156 -0.087502 -0.750896 0.607304 0.259494 122 80 18
-0.135378 2.293631 0.229084 -0.750896 0.607304 0.259494 111 72 18
0.797099 3.403135 0.330771 -0.750896 0.607304 0.259494 27 18 18
0.746334 3.407357 0.173993 -0.750896 0.607304 0.259494 19 18 18
0.030489 2.279838 -0.283162 -0.453988 0.566929 -0.687376 151 95 18
-0.237889 2.302156 -0.087502 -0.453988 0.566929 -0.687376 127 80 18
0.746334 3.407357 0.173993 -0.453988 0.566929 -0.687376 19 18 18
0.879239 3.396305 0.077098 -0.453988 0.566929 -0.687376 32 21 18
0.030489 2.279838 -0.283162 -0.514952 0.409565 0.753048 157 106 19
0.298866 2.257521 -0.087502 -0.514952 0.409565 0.753048 134 91 18
-0.384608 3.404468 -1.178674 -0.514952 0.409565 0.753048 19 18 18
-0.503154 3.414326 -1.265100 -0.514952 0.409565 0.753048 21 18 18
0.298866 2.257521 -0.087502 -0.731883 -0.645071 -0.219616 119 78 18
0.196355 2.266046 0.229084 -0.731883 -0.645071 -0.219616 113 71 18
-0.429889 3.408233 -1.038835 -0.731883 -0.645071 -0.219616 18 18 18
-0.384608 3.404468 -1.178674 -0.731883 -0.645071 -0.219616 18 18 18
0.196355 2.266046 0.229084 -0.062930 -0.756770 -0.650645 112 74 18
-0.135378 2.293631 0.229084 -0.062930 -0.756770 -0.650645 95 62 18
-0.576419 3.420419 -1.038835 -0.062930 -0.756770 -0.650645 19 18 18
-0.429889 3.408233 -1.038835 -0.062930 -0.756770 -0.650645 18 18 18
-0.135378 2.293631 0.229084 0.951243 0.026542 -0.307300 137 88 18
-0.237889 2.302156 -0.087502 0.951243 0.026542 -0.307300 137 88 18
-0.621699 3.424184 -1.178674 0.951243 0.026542 -0.307300 24 18 18
-0.576419 3.420419 -1.038835 0.951243 0.026542 -0.307300 19 18 18
-0.237889 2.302156 -0.087502 0.460531 0.694781 0.552440 139 86 18
0.030489 2.279838 -0.283162 0.460531 0.694781 0.552440 151 95 18
-0.503154 3.414326 -1.265100 0.460531 0.694781 0.552440 18 18 18
-0.621699 3.424184 -1.178674 0.460531 0.694781 0.552440 24 18 18
0.298866 2.257521 -0.087502 0.538642 0.494057 -0.682475 137 93 18
0.030489 2.279838 -0.283162 0.538642 0.494057 -0.682475 161 109 20
0.456705 3.606247 1.013443 0.538642 0.494057 -0.682475 28 18 18
0.580078 3.595988 1.103387 0.538642 0.494057 -0.682475 32 21 18
0.196355 2.266046 0.229084 0.852966 -0.435378 0.287915 114 73 18
0.298866 2.257521 -0.087502 0.852966 -0.435378 0.287915 119 78 18
0.580078 3.595988 1.103387 0.852966 -0.435378 0.287915 30 21 18
0.532954 3.599907 1.248921 0.852966 -0.435378 0.287915 34 21 18
-0.135378 2.293631 0.229084 -0.049784 -0.598673 0.799445 137 88 18
0.196355 2.266046 0.229084 -0.049784 -0.598673 0.799445 137 88 18
0.532954 3.599907 1.248921 -0.049784 -0.598673 0.799445 32 21 18
0.380457 3.612588 1.248921 -0.049784 -0.598673 0.799445 27 18 18
-0.237889 2.302156 -0.087502 -0.942278 0.129897 0.308609 137 88 18
-0.135378 2.293631 0.229084 -0.942278 0.129897 0.308609 137 88 18
0.380457 3.612588 1.248921 -0.942278 0.129897 0.308609 27 18 18
0.333333 3.616507 1.103387 -0.942278 0.129897 0.308609 21 18 18
0.030489 2.279838 -0.283162 -0.377641 0.706470 -0.598572 151 95 18
-0.237889 2.302156 -0.087502 -0.377641 0.706470 -0.598572 127 80 18
0.333333 3.616507 1.103387 -0.377641 0.706470 -0.598572 21 18 18
0.456705 3.606247 1.013443 -0.377641 0.706470 -0.598572 23 18 18
3 0 1 2
3 3 4 5
3 6 7 8
3 9 10 11
3 12 13 14
3 15 16 17
3 18 19 20
3 21 22 23
3 24 25 26
3 27 28 29
3 30 31 32
3 33 34 35
3 36 37 38
3 39 40 41
3 42 43 44
3 45 46 47
3 48 49 50
3 51 52 53
3 54 55 56
3 57 58 59
3 60 61 62
3 63 64 65
3 66 67 68
3 69 70 71
3 72 73 74
3 75 76 77
3 78 79 80
3 81 82 83
3 84 85 86
3 87 88 89
3 90 91 92
3 93 94 95
3 96 97 98
3 99 100 101
3 102 103 104
3 105 106 107
3 108 109 110
3 111 112 113
3 114 115 116
3 117 118 119
3 120 121 122
3 123 124 125
3 126 127 128
3 129 130 131
3 132 133 134
3 135 136 137
3 138 139 140
3 141 142 143
3 144 145 146
3 147 148 149
3 150 151 152
3 153 154 155
3 156 157 158
3 159 160 161
3 162 163 164
3 165 166 167
3 168 169 170
3 171 172 173
3 174 175 176
3 177 178 179
4 180 181 182 183
3 184 185 186
3 187 188 185
3 184 187 185
4 189 190 191 192
4 193 194 195 196
4 197 198 199 200
4 201 202 203 204
4 205 206 207 208
4 209 210 211 212
4 213 214 215 216
4 217 218 219 220
4 221 222 223 224
4 225 226 227 228
4 229 230 231 232
4 233 234 235 236
4 237 238 239 240
4 241 242 243 244
4 245 246 247 248
4 249 250 251 252
4 253 254 255 256
4 257 258 259 260
4 261 262 263 264
